<?xml version="1.0" encoding="UTF-8"?>
<svg id="Lag_1" data-name="Lag 1" xmlns="http://www.w3.org/2000/svg" viewBox="0 0 64 64">
  <defs>
    <style>
      .cls-1, .cls-2, .cls-3 {
        fill: #248841;
      }

      .cls-4 {
        fill: #e2a492;
      }

      .cls-5 {
        fill: #099046;
      }

      .cls-6 {
        fill: #98bb1f;
      }

      .cls-7 {
        fill: #dc800c;
      }

      .cls-2 {
        opacity: .05;
      }

      .cls-2, .cls-3 {
        isolation: isolate;
      }

      .cls-8 {
        fill: #fae5d3;
      }

      .cls-9 {
        fill: #e73645;
      }

      .cls-10 {
        fill: #f7a414;
      }

      .cls-3 {
        opacity: .1;
      }

      .cls-11 {
        fill: #708d2b;
      }

      .cls-12 {
        fill: #a5c83d;
      }
    </style>
  </defs>
  <path class="cls-12" d="M48.11,31.16l-2.45-1.9-1.6,1.17s-.04,.04-.07,.05l-.08,.06s-.03,.03-.05,.03l-6.61,4.81c-.24-1.91,10.21-13.19,10.21-13.19l-2.78-2.4-9.91,10.69-2.01,2.01c-1.63-2.66,3.73-13.48,3.73-13.48l-2.89-1.07c-.8,.32-1.83,2.21-2.81,4.48-.03,.17-.11,.31-.19,.46-.13,.3-.25,.61-.38,.92-.03,.1-.07,.21-.12,.3h0c-.03,.09-.07,.17-.1,.26,0,.02,0,.03,0,.05,0,.03-.02,.05-.03,.07-1.32,3.4-2.38,6.84-2.38,6.84l-3.82-10.65-3.51,.45c3.9,2.19,2.96,25.87,3.37,27.09s7.09,2.62,7.09,2.62c-.89-2.01,17.4-19.66,17.4-19.66h0Z"/>
  <ellipse class="cls-1" cx="26.39" cy="16.75" rx="5.32" ry="4.82"/>
  <ellipse class="cls-1" cx="34.17" cy="18.45" rx="5.32" ry="4.82"/>
  <path class="cls-1" d="M45.35,20.42c-.12-2.66-2.6-4.72-5.53-4.61-2.93,.11-5.21,2.35-5.09,5.01,.05,1.14,.54,2.18,1.32,2.98l.1,.1c.55,.54,1.24,.96,2,1.23,.13,.03,.25,.07,.37,.11,.55,.15,1.14,.22,1.75,.2,2.93-.11,5.21-2.35,5.09-5.01Z"/>
  <path class="cls-1" d="M49.74,23.45c-.12-2.66-2.6-4.72-5.53-4.61-2.93,.11-5.21,2.35-5.09,5.01,.1,2.26,1.91,4.1,4.26,4.52,.11,.01,.22,.03,.33,.05,.31,.04,.62,.05,.94,.04,2.93-.11,5.21-2.35,5.09-5.01h0Z"/>
  <path class="cls-1" d="M55.16,29.25c-.12-2.66-2.6-4.72-5.53-4.61-2.6,.1-4.69,1.88-5.04,4.13,0,.03,0,.07-.01,.1,0,.05-.01,.11-.02,.17,.02,.1,.03,.2,.02,.3,0,.06-.02,.11-.04,.16v.15s0,.03,0,.05c0,.03,.01,.05,0,.08,.19,2.59,2.63,4.59,5.52,4.48,2.93-.11,5.21-2.35,5.09-5.01Z"/>
  <ellipse class="cls-1" cx="51.86" cy="24.99" rx="5.32" ry="4.82"/>
  <ellipse class="cls-1" cx="51.71" cy="28.31" rx="5.32" ry="4.82"/>
  <ellipse class="cls-1" cx="54.33" cy="25.48" rx="5.32" ry="4.82"/>
  <ellipse class="cls-1" cx="23.44" cy="16.18" rx="5.32" ry="4.82"/>
  <ellipse class="cls-1" cx="29.28" cy="13.82" rx="5.32" ry="4.82"/>
  <ellipse class="cls-1" cx="36.52" cy="13.24" rx="5.32" ry="4.82"/>
  <ellipse class="cls-1" cx="43.13" cy="15.69" rx="5.32" ry="4.82"/>
  <ellipse class="cls-1" cx="54.17" cy="22.04" rx="5.32" ry="4.82"/>
  <ellipse class="cls-1" cx="48.11" cy="18.4" rx="5.32" ry="4.82"/>
  <path class="cls-1" d="M25.23,23.74c.56-.47,1.02-1.05,1.32-1.73,1.11-2.46-.2-5.27-2.91-6.28s-5.82,.18-6.93,2.64,.2,5.27,2.91,6.28c1.95,.72,4.1,.32,5.56-.88,0-.01,.03-.03,.04-.03h0Z"/>
  <ellipse class="cls-1" cx="26.96" cy="18.16" rx="5.32" ry="4.82"/>
  <ellipse class="cls-1" cx="34.23" cy="18.33" rx="5.32" ry="4.82"/>
  <ellipse class="cls-1" cx="40.1" cy="20.5" rx="5.32" ry="4.82"/>
  <ellipse class="cls-1" cx="44.48" cy="23.52" rx="5.32" ry="4.82"/>
  <ellipse class="cls-1" cx="49.9" cy="29.32" rx="5.32" ry="4.82"/>
  <ellipse class="cls-1" cx="51.91" cy="24.86" rx="5.32" ry="4.82"/>
  <ellipse class="cls-1" cx="51.76" cy="28.18" rx="5.32" ry="4.82"/>
  <ellipse class="cls-1" cx="54.39" cy="25.35" rx="5.32" ry="4.82"/>
  <ellipse class="cls-1" cx="23.49" cy="16.06" rx="5.32" ry="4.82"/>
  <ellipse class="cls-1" cx="29.34" cy="13.69" rx="5.32" ry="4.82"/>
  <ellipse class="cls-1" cx="36.58" cy="13.12" rx="5.32" ry="4.82"/>
  <ellipse class="cls-1" cx="43.18" cy="15.56" rx="5.32" ry="4.82"/>
  <ellipse class="cls-1" cx="54.23" cy="21.92" rx="5.32" ry="4.82"/>
  <ellipse class="cls-1" cx="48.17" cy="18.28" rx="5.32" ry="4.82"/>
  <ellipse class="cls-1" cx="21.94" cy="18.79" rx="5.32" ry="4.82"/>
  <path class="cls-1" d="M28.24,14.29c-2.72-1-5.82,.18-6.93,2.64s.2,5.27,2.91,6.28c1.01,.37,2.07,.44,3.06,.26,.12-.04,.25-.07,.38-.09,.03,0,.07,0,.1-.02,.45-.12,.87-.29,1.27-.51,.13-.09,.27-.18,.41-.25,.74-.5,1.34-1.19,1.72-2.02,1.11-2.46-.2-5.27-2.91-6.28h0Z"/>
  <ellipse class="cls-1" cx="34.17" cy="18.45" rx="5.32" ry="4.82"/>
  <path class="cls-3" d="M53.68,28.36c-.12-2.66-2.6-4.72-5.53-4.61-2.77,.1-4.96,2.12-5.09,4.58,.08,0,.16,.02,.24,.03,.25,.03,.51,.06,.74,.15,.02,0,.03-.01,.05-.02,.07-.04,.16-.04,.21,.03,0,0,0,0,0,.02,.03-.01,.05-.02,.09-.02,.12,0,.15,.11,.11,.19,.1,.06,.08,.18,0,.23,.05,.13,.07,.27,.05,.41-.01,.11-.05,.21-.1,.3,.1,.05,.09,.17,.02,.22v.02c.12,.08,.02,.28-.14,.23,0,0,0,0,0,.01,0,.08-.05,.16-.15,.15-.02,.04-.06,.08-.11,.09-.02,.06-.07,.11-.14,.11-.02,.05-.07,.1-.14,.09-.04,.06-.1,.1-.17,.13,0,0,0,0-.02,0,.91,1.64,2.81,2.74,4.96,2.66,2.93-.11,5.21-2.35,5.09-5.01h0Z"/>
  <path class="cls-3" d="M47.78,23.09c-.27-2.65-2.85-4.6-5.77-4.36-2.92,.24-5.08,2.58-4.81,5.23,.03,.31,.1,.61,.19,.9,.02,0,.04,.02,.06,.02,.13,.06,.26,.11,.39,.16,.04,.02,.07,.03,.11,.05,.36,0,.66,.2,.99,.29,0,0,.02,0,.03,0,.05,0,.09,0,.12,.04,0,0,.02,0,.03,0,.08,0,.14,.08,.13,.15,0,.06-.04,.12-.09,.16-.04,.03-.09,.05-.13,.07h0c0,.06-.03,.12-.09,.14-.02,0-.04,0-.05,0-.03,.09-.1,.17-.2,.21-.05,.08-.12,.16-.2,.23-.04,.05-.09,.09-.15,.12,.92,1.04,2.29,1.73,3.83,1.81h0c-.03-.1,.06-.23,.2-.18,.1,.04,.2,.08,.3,.12,.06,.01,.13,.02,.19,.03,.05,0,.1,.01,.15,.02,2.91-.25,5.05-2.59,4.78-5.23h0Z"/>
  <path class="cls-3" d="M43.81,20.57c-.12-2.66-2.6-4.72-5.53-4.61-2.93,.11-5.21,2.35-5.09,5.01,.05,1.09,.5,2.08,1.21,2.86,0-.05,.02-.11,.07-.14-.01-.05,0-.11,.05-.14,0-.06,.03-.11,.08-.14,0-.07,.07-.14,.16-.13,.03,0,.07-.01,.1,0,0,0,0,0,0,0,.03-.05,.1-.08,.17-.05,0,0,.01,0,.02,.01,.02,0,.03,0,.05,0,.04-.04,.09-.06,.16-.04h0s.08-.03,.13,0c.02,0,.03,.01,.04,.02,.01,0,.03,0,.04,0,.05,.02,.07,.05,.08,.08,.06,.02,.1,.06,.09,.14h0s.05,.06,.05,.09c.06,.02,.11,.05,.15,.1,.32,.31,.62,.64,.99,.91,.05,.03,.09,.06,.13,.09,0,0,0,0,.02,.01,.1,.07,.21,.12,.31,.18,0,0,0,0,0,0,.03,.01,.06,.03,.09,.04,.13,.06,.26,.11,.39,.16,.04,.02,.07,.03,.11,.05,.36,0,.66,.2,.99,.29,0,0,.02,0,.03,0,.05,0,.09,0,.12,.04,0,0,.02,0,.03,0,.07,0,.12,.06,.13,.12,2.67-.34,4.68-2.47,4.57-4.97h0Z"/>
  <path class="cls-2" d="M35.68,23.45h0s.04,.03,.05,.05c1.23-.93,1.98-2.34,1.91-3.9-.12-2.66-2.6-4.72-5.53-4.61-2.93,.11-5.21,2.35-5.09,5.01,.06,1.24,.63,2.36,1.53,3.18,.02,0,.04-.02,.06-.03,.34-.22,.68-.51,1.08-.65,.02-.05,.07-.1,.14-.1,0,0,0-.02,0-.02,.02-.04,.06-.07,.1-.08,0-.04,.02-.09,.06-.11,.07-.04,.15-.08,.23-.11,0-.09,.08-.19,.2-.14,.08,.03,.1,.09,.08,.15h0s.08-.03,.13,0c.09,.03,.11,.12,.07,.18,.06,.02,.11,.06,.1,.14-.05,.31-.27,.55-.4,.83-.13,.28-.14,.59-.3,.87-.01,.02-.03,.04-.05,.05,.75,.33,1.6,.5,2.49,.47,.61-.02,1.18-.14,1.72-.33-.01-.08,.04-.16,.13-.17,0-.07,.02-.14,.04-.22-.07-.06-.04-.17,.04-.21-.01-.05,0-.11,.05-.14,0-.06,.03-.11,.08-.14,0-.07,.07-.14,.16-.13,.03,0,.07-.01,.1,0,0,0,0,0,0,0,.03-.05,.1-.08,.17-.05,0,0,.01,0,.02,.01,.02,0,.03,0,.05,0,.04-.04,.09-.06,.16-.04h0s.08-.03,.13,0c.02,0,.03,.01,.04,.02,.01,0,.03,0,.04,0,.05,.02,.07,.05,.08,.08,.06,.02,.1,.06,.09,.14h.02Z"/>
  <path class="cls-2" d="M36.16,19.4c-.12-2.66-2.6-4.72-5.53-4.61-2.93,.11-5.21,2.35-5.09,5.01,.07,1.47,.86,2.76,2.04,3.6,.03,0,.05,0,.08-.02,.15-.03,.3-.05,.45-.06,.05-.02,.1-.04,.15-.06,.05-.01,.09,0,.12,0,.07-.04,.15-.08,.22-.13,.34-.22,.68-.51,1.08-.65,.02-.05,.07-.1,.14-.1,0,0,0-.02,0-.02,.02-.04,.06-.07,.1-.08,0-.04,.02-.09,.06-.11,.07-.04,.15-.08,.23-.11,0-.09,.08-.19,.2-.14,.08,.03,.1,.09,.08,.15h0s.08-.03,.13,0c.09,.03,.11,.12,.07,.18,.06,.02,.11,.06,.1,.14-.05,.31-.27,.55-.4,.83-.13,.28-.14,.59-.3,.87-.01,.03-.04,.04-.06,.06-.01,.07-.03,.13-.04,.2,.34,.05,.7,.08,1.06,.06,2.93-.11,5.21-2.35,5.09-5.01h0Z"/>
  <path class="cls-3" d="M29.02,20.76c-.12-2.66-2.6-4.72-5.53-4.61-2.93,.11-5.21,2.35-5.09,5.01,.07,1.64,1.05,3.06,2.48,3.88,.2,0,.4,.02,.6,.06,.04-.03,.09-.05,.16-.03,.02,0,.03,.01,.04,.02,.08-.04,.18-.05,.29,0,.18,.07,.24,.2,.22,.33,.02,.03,.04,.05,.05,.08,.02,.03,.03,.06,.03,.1h0c.53,.14,1.09,.2,1.66,.18,.58-.02,1.13-.13,1.64-.3,0,0-.02-.02-.02-.04-.13-.36-.31-.73-.36-1.11-.04-.07-.08-.13-.12-.2,0-.01,0-.03,0-.04-.13-.07-.05-.25,.09-.25,.01-.07,.08-.14,.18-.11,.02-.02,.05-.04,.08-.05,.02-.07,.1-.12,.19-.09,.02,0,.03,.02,.05,.03,.03,0,.05,0,.07,0,.31-.02,.62,.01,.93,.02,.03-.07,.1-.11,.19-.08,.02,0,.04,.02,.05,.03,.01,0,.02,0,.04,0,.03-.05,.1-.08,.18-.06h0c.17-.08,.37-.13,.55-.16,.15-.03,.3-.05,.45-.06,.05-.02,.1-.04,.15-.06,.04-.01,.08,0,.11,0,.45-.74,.69-1.6,.65-2.5h.01Z"/>
  <path class="cls-1" d="M45.35,20.42c-.12-2.66-2.6-4.72-5.53-4.61-2.93,.11-5.21,2.35-5.09,5.01,.05,1.14,.54,2.18,1.32,2.98l.1,.1c.55,.54,1.24,.96,2,1.23,.13,.03,.25,.07,.37,.11,.55,.15,1.14,.22,1.75,.2,2.93-.11,5.21-2.35,5.09-5.01Z"/>
  <path class="cls-1" d="M49.74,23.45c-.12-2.66-2.6-4.72-5.53-4.61-2.93,.11-5.21,2.35-5.09,5.01,.1,2.26,1.91,4.1,4.26,4.52,.11,.01,.22,.03,.33,.05,.31,.04,.62,.05,.94,.04,2.93-.11,5.21-2.35,5.09-5.01h0Z"/>
  <path class="cls-1" d="M55.16,29.25c-.12-2.66-2.6-4.72-5.53-4.61-2.6,.1-4.69,1.88-5.04,4.13,0,.03,0,.07-.01,.1,0,.05-.01,.11-.02,.17,.02,.1,.03,.2,.02,.3,0,.06-.02,.11-.04,.16v.15s0,.03,0,.05c0,.03,.01,.05,0,.08,.19,2.59,2.63,4.59,5.52,4.48,2.93-.11,5.21-2.35,5.09-5.01Z"/>
  <ellipse class="cls-1" cx="51.86" cy="24.99" rx="5.32" ry="4.82"/>
  <ellipse class="cls-1" cx="51.71" cy="28.31" rx="5.32" ry="4.82"/>
  <ellipse class="cls-1" cx="54.33" cy="25.48" rx="5.32" ry="4.82"/>
  <ellipse class="cls-1" cx="23.44" cy="16.18" rx="5.32" ry="4.82"/>
  <path class="cls-1" d="M29.5,18.63c-2.93,.11-5.41-1.96-5.53-4.61s2.16-4.9,5.09-5.01c2.93-.11,5.41,1.96,5.53,4.61,.12,2.66-2.16,4.9-5.09,5.01Z"/>
  <ellipse class="cls-1" cx="36.52" cy="13.24" rx="5.32" ry="4.82"/>
  <ellipse class="cls-1" cx="43.13" cy="15.69" rx="5.32" ry="4.82"/>
  <ellipse class="cls-1" cx="54.17" cy="22.04" rx="5.32" ry="4.82"/>
  <ellipse class="cls-1" cx="48.11" cy="18.4" rx="5.32" ry="4.82"/>
  <path class="cls-5" d="M23.43,14.73c-2.93,.11-5.41-1.96-5.53-4.61-.12-2.66,2.16-4.9,5.09-5.01,2.93-.11,5.41,1.96,5.53,4.61,.12,2.66-2.16,4.9-5.09,5.01Z"/>
  <path class="cls-5" d="M21.6,19.94c-2.93,.11-5.41-1.96-5.53-4.61s2.16-4.9,5.09-5.01c2.93-.11,5.41,1.96,5.53,4.61,.12,2.66-2.16,4.9-5.09,5.01Z"/>
  <path class="cls-5" d="M21.02,22.44c-2.93,.11-5.41-1.96-5.53-4.61s2.16-4.9,5.09-5.01c2.93-.11,5.41,1.96,5.53,4.61,.12,2.66-2.16,4.9-5.09,5.01Z"/>
  <path class="cls-5" d="M27.53,20.73c-2.93,.11-5.41-1.96-5.53-4.61s2.16-4.9,5.09-5.01c2.93-.11,5.41,1.96,5.53,4.61,.12,2.66-2.16,4.9-5.09,5.01Z"/>
  <path class="cls-5" d="M27.41,12.65c-2.93,.11-5.41-1.96-5.53-4.61-.12-2.66,2.16-4.9,5.09-5.01,2.93-.11,5.41,1.96,5.53,4.61,.12,2.66-2.16,4.9-5.09,5.01Z"/>
  <path class="cls-5" d="M35.28,13.91c-2.93,.11-5.41-1.96-5.53-4.61-.12-2.66,2.16-4.9,5.09-5.01,2.93-.11,5.41,1.96,5.53,4.61,.12,2.66-2.16,4.9-5.09,5.01Z"/>
  <path class="cls-5" d="M31.27,12.42c-2.93,.11-5.41-1.96-5.53-4.61-.12-2.66,2.16-4.9,5.09-5.01,2.93-.11,5.41,1.96,5.53,4.61,.12,2.66-2.16,4.9-5.09,5.01Z"/>
  <path class="cls-5" d="M38.66,11.05c-2.93,.11-5.41-1.96-5.53-4.61-.12-2.66,2.16-4.9,5.09-5.01,2.93-.11,5.41,1.96,5.53,4.61,.12,2.66-2.16,4.9-5.09,5.01Z"/>
  <path class="cls-5" d="M40.08,20.02c-2.93,.11-5.41-1.96-5.53-4.61s2.16-4.9,5.09-5.01c2.93-.11,5.41,1.96,5.53,4.61,.12,2.66-2.16,4.9-5.09,5.01Z"/>
  <path class="cls-5" d="M47.29,21.81c-2.93,.11-5.41-1.96-5.53-4.61s2.16-4.9,5.09-5.01c2.93-.11,5.41,1.96,5.53,4.61,.12,2.66-2.16,4.9-5.09,5.01Z"/>
  <path class="cls-5" d="M51.69,26.48c-2.93,.11-5.41-1.96-5.53-4.61-.12-2.66,2.16-4.9,5.09-5.01,2.93-.11,5.41,1.96,5.53,4.61,.12,2.66-2.16,4.9-5.09,5.01Z"/>
  <path class="cls-5" d="M58.8,28.49c-2.93,.11-5.41-1.96-5.53-4.61s2.16-4.9,5.09-5.01c2.93-.11,5.41,1.96,5.53,4.61,.12,2.66-2.16,4.9-5.09,5.01Z"/>
  <path class="cls-5" d="M55.45,32.22c-2.93,.11-5.41-1.96-5.53-4.61-.12-2.66,2.16-4.9,5.09-5.01,2.93-.11,5.41,1.96,5.53,4.61,.12,2.66-2.16,4.9-5.09,5.01Z"/>
  <path class="cls-5" d="M49.02,27.74c-2.93,.11-5.41-1.96-5.53-4.61-.12-2.66,2.16-4.9,5.09-5.01,2.93-.11,5.41,1.96,5.53,4.61,.12,2.66-2.16,4.9-5.09,5.01Z"/>
  <path class="cls-5" d="M43.12,23.1c-2.93,.11-5.41-1.96-5.53-4.61s2.16-4.9,5.09-5.01c2.93-.11,5.41,1.96,5.53,4.61,.12,2.66-2.16,4.9-5.09,5.01Z"/>
  <path class="cls-5" d="M54.3,21.35c-2.94-.04-5.28-2.23-5.23-4.89,.05-2.66,2.46-4.78,5.4-4.74,2.94,.04,5.28,2.23,5.23,4.89-.05,2.66-2.46,4.78-5.4,4.74Z"/>
  <path class="cls-5" d="M42.31,17.6c-2.93,.11-5.41-1.96-5.53-4.61-.12-2.66,2.16-4.9,5.09-5.01,2.93-.11,5.41,1.96,5.53,4.61,.12,2.66-2.16,4.9-5.09,5.01Z"/>
  <path class="cls-5" d="M51.84,16.48c-2.93,.11-5.41-1.96-5.53-4.61-.12-2.66,2.16-4.9,5.09-5.01,2.93-.11,5.41,1.96,5.53,4.61,.12,2.66-2.16,4.9-5.09,5.01Z"/>
  <path class="cls-5" d="M46.01,12.67c-2.93,.11-5.41-1.96-5.53-4.61-.12-2.66,2.16-4.9,5.09-5.01,2.93-.11,5.41,1.96,5.53,4.61,.12,2.66-2.16,4.9-5.09,5.01Z"/>
  <path class="cls-5" d="M58.9,24.74c-2.93,.11-5.41-1.96-5.53-4.61-.12-2.66,2.16-4.9,5.09-5.01,2.93-.11,5.41,1.96,5.53,4.61,.12,2.66-2.16,4.9-5.09,5.01Z"/>
  <path class="cls-5" d="M40.92,15.99c-2.93,.11-5.41-1.96-5.53-4.61-.12-2.66,2.16-4.9,5.09-5.01,2.93-.11,5.41,1.96,5.53,4.61,.12,2.66-2.16,4.9-5.09,5.01Z"/>
  <path class="cls-5" d="M34.8,19.61c-2.93,.11-5.41-1.96-5.53-4.61s2.16-4.9,5.09-5.01c2.93-.11,5.41,1.96,5.53,4.61,.12,2.66-2.16,4.9-5.09,5.01Z"/>
  <path class="cls-4" d="M63.77,48.41h0c-.01-.13-.03-.26-.05-.39-.05-.39-.15-1.19-.35-2.79h-.37c-2.11-5.56-7.93-9.56-14.79-9.56-7.88,0-14.39,5.28-15.47,12.15h-1.17c-4.06,0-7.46,2.73-8.05,6.27h-.4c.14,1.22,.24,2.06,.31,2.65,0,.46,.06,.9,.16,1.34h0c.75,3.37,4.06,5.92,7.98,5.92h15.36c.18,0,.35,0,.52-.02,.25,0,.5,.02,.76,.02,8.63,0,15.63-6.34,15.63-14.16,0-.48-.03-.96-.08-1.42h0Z"/>
  <path class="cls-8" d="M48.07,33.15c-7.95-.07-14.55,5.23-15.63,12.14h-1.17c-4.48,0-8.14,3.32-8.14,7.38v1.42c0,4.06,3.67,7.38,8.14,7.38h15.36c.18,0,.35,0,.52-.02,.25,0,.5,.02,.76,.02,8.83,0,15.96-6.64,15.62-14.71-.32-7.51-7.16-13.53-15.46-13.61h0Z"/>
  <path class="cls-9" d="M48.12,35.2c-6.51,0-11.92,4.37-13.05,10.14-.18,.91-1.06,1.56-2.07,1.56h-1.27c-3.61,0-6.54,2.65-6.54,5.93v1.2c0,3.27,2.93,5.93,6.54,5.93h16.39c7.33,0,13.27-5.54,13.27-12.38s-5.94-12.38-13.27-12.38h0Z"/>
  <path class="cls-8" d="M62.08,44.46v-.02c-.15-.5-.86-1.54-1.27-.67l-17.51,4.33c-.44,.11-3.7,.88-4.26,.36-.38-.36-1.19-1.16-1.27-1.28,0,0-.64-.55-3.23-2.48-.44-.33-1.1-.27-1.45,.15h0c-.35,.41-.28,.99,.16,1.31,1.57,1.18,3.12,2.37,3.7,2.87,.12,.1,.22,.21,.31,.34,1.57,2.25,2.27,4.78,2.09,7.53-.08,1.21-.32,2.2-.52,2.84-.14,.45,.11,.93,.58,1.12h0c.57,.22,1.22-.06,1.39-.6,.5-1.61,1.19-4.97-.14-8.69-.15-.42,.11-.87,.57-.98l20.15-4.98c.54-.13,.87-.64,.72-1.14h0Z"/>
  <ellipse class="cls-8" cx="32.33" cy="52.92" rx="2.8" ry="2.53"/>
  <polygon class="cls-11" points="15.52 18.06 13.42 7.56 15.48 6.86 16.42 17.49 23.33 5.2 25.55 7.93 17.88 17.9 15.52 18.06"/>
  <polygon class="cls-6" points="15.44 16.47 16.56 1.83 18.55 1.66 16.6 16.35 18.86 5.87 21.6 6.45 17.62 16.64 26.73 0 28.82 1.59 18.56 16.9 27.95 7.41 29.86 9.23 19.75 17.23 18.64 18.93 15.52 18.06 15.44 16.47"/>
  <path class="cls-10" d="M24.49,28.51c-.38,1.1-1.39,3.49-2.8,6.52-.32,.7-.67,1.43-1.04,2.19-1.09,2.27-2.33,4.77-3.66,7.3-.38,.72-.76,1.44-1.15,2.16-1.83,3.38-3.76,6.71-5.63,9.51-.49,.73-.97,1.42-1.44,2.07-2.56,3.52-4.88,5.75-6.45,5.31-2.59-.72-2.68-8.55-1.86-17.2,.08-.8,.16-1.6,.25-2.41,.2-1.81,.44-3.63,.69-5.41,.11-.8,.23-1.6,.35-2.38,.55-3.56,1.14-6.82,1.67-9.28,.19-.89,.37-1.67,.53-2.33,.18-.71,.33-1.28,.47-1.67,1.71-5.02,7.59-7.84,13.13-6.29,3.9,1.09,6.59,4.05,7.25,7.46,.16,.82,.2,1.66,.11,2.51-.07,.64-.21,1.29-.43,1.93h0Z"/>
  <path class="cls-7" d="M4.49,46.26c-.11,.31-.34,.55-.64,.7s-.65,.18-1,.09l-2.39-.67c.08-.8,.16-1.6,.25-2.41l2.92,.82c.69,.19,1.08,.86,.86,1.48h0Z"/>
  <path class="cls-7" d="M10.8,27.73c-.11,.31-.42,.53-.84,.64s-.95,.1-1.48-.05l-4.95-1.38c.13-.9,.27-1.7,.4-2.37l5.31,1.49c1.06,.3,1.75,1.05,1.54,1.67h0Z"/>
  <path class="cls-7" d="M10.21,56.19c-.49,.73-.97,1.42-1.44,2.07l-2.99-.84c-.69-.19-1.07-.86-.86-1.48,.11-.31,.34-.56,.64-.7,.3-.14,.65-.18,.99-.09l3.66,1.02h0Z"/>
  <path class="cls-7" d="M24.91,26.58l-4.41-1.23c-.69-.19-1.07-.86-.86-1.48,.11-.31,.34-.56,.64-.7,.3-.14,.65-.18,.99-.09l3.53,.99c.16,.82,.2,1.66,.11,2.51Z"/>
  <path class="cls-7" d="M21.69,35.04c-.32,.7-.67,1.43-1.04,2.19l-3.83-1.07c-.69-.19-1.07-.86-.86-1.48,.11-.31,.34-.56,.64-.7,.3-.14,.65-.18,.99-.09l4.1,1.15h0Z"/>
  <path class="cls-7" d="M9.23,39.51c-.11,.31-.34,.56-.64,.7-.3,.14-.65,.18-.99,.09l-6.21-1.74c.11-.8,.23-1.6,.35-2.38l6.63,1.85c.69,.19,1.07,.86,.86,1.48h0Z"/>
  <path class="cls-7" d="M16.99,44.53c-.38,.72-.76,1.44-1.15,2.16l-1.06-.3c-.69-.19-1.07-.86-.86-1.48,.11-.31,.34-.55,.64-.7,.3-.14,.65-.18,.99-.09l1.44,.4h0Z"/>
  <path class="cls-7" d="M17.98,31.53l-1.73-.48c-.69-.19-1.07-.86-.86-1.48h0c.21-.62,.95-.97,1.63-.78l1.73,.48c.69,.19,1.07,.86,.86,1.48h0c-.21,.62-.95,.97-1.63,.78Z"/>
</svg>