<?xml version="1.0" encoding="UTF-8"?>
<svg id="Lag_1" data-name="Lag 1" xmlns="http://www.w3.org/2000/svg" viewBox="0 0 192 192">
  <defs>
    <style>
      .cls-1, .cls-2, .cls-3 {
        fill: #248841;
      }

      .cls-4 {
        fill: #e2a492;
      }

      .cls-5 {
        fill: #099046;
      }

      .cls-6 {
        fill: #98bb1f;
      }

      .cls-7 {
        fill: #dc800c;
      }

      .cls-2 {
        opacity: .05;
      }

      .cls-8 {
        fill: #fae5d3;
      }

      .cls-9 {
        fill: #e73645;
      }

      .cls-10 {
        fill: #f7a414;
      }

      .cls-11 {
        fill: #708d2b;
      }

      .cls-3 {
        opacity: .1;
      }

      .cls-12 {
        fill: #a5c83d;
      }
    </style>
  </defs>
  <path class="cls-12" d="M144.34,93.47l-7.35-5.71-4.8,3.5c-.05,.07-.12,.12-.21,.15l-.24,.17s-.09,.08-.14,.1l-19.83,14.43c-.72-5.74,30.63-39.57,30.63-39.57l-8.33-7.2-29.74,32.08-6.02,6.02c-4.88-7.98,11.18-40.44,11.18-40.44l-8.68-3.21c-2.41,.97-5.49,6.64-8.42,13.43-.09,.5-.33,.94-.58,1.37-.38,.91-.76,1.84-1.14,2.77-.09,.31-.2,.62-.36,.91,0,0,0,0,0,0-.1,.26-.2,.51-.3,.77,0,.05-.02,.1-.03,.16-.02,.08-.06,.14-.1,.2-3.96,10.2-7.13,20.52-7.13,20.52l-11.45-31.95-10.53,1.35c11.71,6.58,8.87,77.62,10.12,81.27,1.25,3.65,21.26,7.86,21.26,7.86-2.66-6.04,52.19-58.99,52.19-58.99Z"/>
  <ellipse class="cls-1" cx="79.18" cy="50.25" rx="15.95" ry="14.45"/>
  <ellipse class="cls-1" cx="102.52" cy="55.36" rx="15.95" ry="14.45"/>
  <path class="cls-1" d="M136.06,61.27c-.36-7.97-7.79-14.17-16.59-13.84-8.8,.33-15.64,7.06-15.28,15.03,.16,3.43,1.62,6.54,3.95,8.93,.1,.1,.19,.19,.29,.29,1.65,1.62,3.71,2.88,6.01,3.68,.38,.08,.74,.2,1.1,.34,1.65,.45,3.42,.66,5.24,.6,8.8-.33,15.64-7.06,15.28-15.03Z"/>
  <path class="cls-1" d="M149.21,70.34c-.36-7.97-7.79-14.17-16.59-13.84-8.8,.33-15.64,7.06-15.28,15.03,.31,6.79,5.74,12.29,12.78,13.57,.33,.04,.66,.09,.99,.15,.92,.11,1.86,.16,2.82,.12,8.8-.33,15.64-7.06,15.28-15.03Z"/>
  <path class="cls-1" d="M165.48,87.75c-.36-7.97-7.79-14.17-16.59-13.84-7.81,.29-14.07,5.63-15.13,12.4,.02,.1,0,.2-.04,.29-.02,.16-.04,.33-.06,.5,.07,.3,.1,.61,.06,.9-.02,.17-.06,.33-.11,.48,0,.15,0,.3,0,.46,0,.05,0,.1,.01,.15,.03,.08,.04,.16,.02,.24,.58,7.78,7.9,13.77,16.56,13.45,8.8-.33,15.64-7.06,15.28-15.03Z"/>
  <ellipse class="cls-1" cx="155.57" cy="74.96" rx="15.95" ry="14.45"/>
  <ellipse class="cls-1" cx="155.12" cy="84.93" rx="15.95" ry="14.45"/>
  <ellipse class="cls-1" cx="162.99" cy="76.44" rx="15.95" ry="14.45"/>
  <ellipse class="cls-1" cx="70.3" cy="48.55" rx="15.95" ry="14.45"/>
  <ellipse class="cls-1" cx="87.85" cy="41.45" rx="15.95" ry="14.45"/>
  <ellipse class="cls-1" cx="109.56" cy="39.73" rx="15.95" ry="14.45"/>
  <ellipse class="cls-1" cx="129.38" cy="47.06" rx="15.95" ry="14.45"/>
  <ellipse class="cls-1" cx="162.52" cy="66.13" rx="15.95" ry="14.45"/>
  <ellipse class="cls-1" cx="144.34" cy="55.21" rx="15.95" ry="14.45"/>
  <path class="cls-1" d="M75.67,71.21c1.68-1.4,3.06-3.14,3.97-5.18,3.33-7.39-.59-15.82-8.74-18.84s-17.46,.53-20.79,7.92,.59,15.82,8.74,18.84c5.85,2.16,12.29,.95,16.69-2.63,.03-.04,.08-.08,.12-.1Z"/>
  <ellipse class="cls-1" cx="80.89" cy="54.48" rx="15.95" ry="14.45"/>
  <ellipse class="cls-1" cx="102.69" cy="54.98" rx="15.95" ry="14.45"/>
  <ellipse class="cls-1" cx="120.3" cy="61.49" rx="15.95" ry="14.45"/>
  <ellipse class="cls-1" cx="133.44" cy="70.55" rx="15.95" ry="14.45"/>
  <ellipse class="cls-1" cx="149.71" cy="87.97" rx="15.95" ry="14.45"/>
  <ellipse class="cls-1" cx="155.74" cy="74.59" rx="15.95" ry="14.45"/>
  <ellipse class="cls-1" cx="155.29" cy="84.55" rx="15.95" ry="14.45"/>
  <ellipse class="cls-1" cx="163.16" cy="76.06" rx="15.95" ry="14.45"/>
  <ellipse class="cls-1" cx="70.47" cy="48.17" rx="15.95" ry="14.45"/>
  <ellipse class="cls-1" cx="88.02" cy="41.07" rx="15.95" ry="14.45"/>
  <ellipse class="cls-1" cx="109.73" cy="39.36" rx="15.95" ry="14.45"/>
  <ellipse class="cls-1" cx="129.55" cy="46.68" rx="15.95" ry="14.45"/>
  <ellipse class="cls-1" cx="162.69" cy="65.76" rx="15.95" ry="14.45"/>
  <ellipse class="cls-1" cx="144.51" cy="54.83" rx="15.95" ry="14.45"/>
  <ellipse class="cls-1" cx="65.8" cy="56.36" rx="15.95" ry="14.45"/>
  <path class="cls-1" d="M84.73,42.87c-8.15-3.01-17.46,.53-20.79,7.92s.59,15.82,8.74,18.84c3.02,1.12,6.2,1.33,9.17,.78,.37-.12,.76-.21,1.13-.28,.1-.02,.2-.03,.3-.05,1.34-.36,2.62-.88,3.81-1.54,.4-.28,.81-.54,1.24-.76,2.22-1.51,4.03-3.57,5.15-6.07,3.33-7.39-.59-15.82-8.74-18.84Z"/>
  <ellipse class="cls-1" cx="102.52" cy="55.36" rx="15.95" ry="14.45"/>
  <path class="cls-3" d="M161.03,85.07c-.36-7.97-7.79-14.17-16.59-13.84-8.32,.31-14.88,6.35-15.26,13.75,.24,.03,.49,.06,.73,.09,.74,.09,1.54,.19,2.23,.46,.05-.02,.1-.04,.15-.06,.2-.11,.49-.12,.63,.08,.01,.02,.02,.03,.03,.05,.08-.04,.16-.07,.28-.07,.35,.03,.44,.33,.34,.56,.31,.17,.24,.54-.01,.69,.16,.39,.22,.82,.16,1.23-.04,.33-.15,.63-.29,.91,.31,.15,.27,.51,.05,.67,0,.02,0,.04,0,.06,.35,.25,.06,.83-.41,.7,0,.01-.02,.02-.03,.04,.02,.23-.16,.47-.44,.46-.05,.13-.17,.24-.32,.27-.05,.18-.21,.33-.43,.33-.06,.16-.21,.29-.41,.28-.12,.18-.3,.31-.51,.4-.02,0-.03,0-.05,.01,2.73,4.92,8.43,8.21,14.89,7.97,8.8-.33,15.64-7.06,15.28-15.03Z"/>
  <path class="cls-3" d="M143.35,69.27c-.8-7.95-8.55-13.8-17.32-13.08-8.77,.72-15.23,7.75-14.44,15.7,.09,.93,.29,1.83,.57,2.7,.06,.03,.11,.05,.17,.07,.39,.17,.78,.32,1.17,.49,.11,.05,.22,.1,.33,.15,1.07,0,1.98,.61,2.98,.86,.03,0,.06-.02,.09-.02,.14-.01,.26,.03,.36,.11,.03,0,.06,.01,.09,.01,.24,.02,.42,.24,.39,.45-.03,.19-.11,.36-.27,.49-.11,.09-.26,.15-.39,.22,0,0,0,0,0,0,.02,.18-.08,.35-.26,.43-.05,.02-.11,.03-.16,.03-.1,.27-.31,.52-.59,.64-.14,.25-.35,.49-.6,.7-.12,.15-.27,.28-.46,.36,2.75,3.13,6.88,5.18,11.48,5.43,0,0,.01-.01,.02-.02-.1-.29,.19-.66,.59-.52,.3,.11,.59,.23,.89,.35,.19,.04,.38,.07,.57,.09,.15,.02,.31,.04,.46,.06,8.73-.76,15.14-7.77,14.35-15.69Z"/>
  <path class="cls-3" d="M131.43,61.71c-.36-7.97-7.79-14.17-16.59-13.84-8.8,.33-15.64,7.06-15.28,15.03,.15,3.28,1.5,6.25,3.64,8.59-.02-.16,.06-.33,.21-.42-.04-.15,.03-.32,.16-.42-.02-.17,.08-.34,.24-.42,.02-.22,.22-.41,.49-.38,.09-.03,.2-.04,.31,0,.01,0,.02,.01,.02,.01,.1-.15,.29-.25,.52-.16,.03,0,.04,.03,.06,.04,.05-.02,.1-.02,.16-.02,.11-.12,.28-.18,.49-.11,0,0,0,0,.01,0,.1-.06,.23-.09,.39-.03,.05,.02,.09,.04,.12,.07,.04,0,.08,0,.12,.02,.14,.05,.22,.14,.25,.24,.17,.05,.29,.19,.27,.41,0,0,0,0,0,0,.1,.07,.15,.17,.16,.27,.17,.07,.32,.16,.45,.29,.96,.94,1.87,1.93,2.97,2.74,.15,.09,.28,.18,.4,.28,.02,.01,.03,.02,.05,.04,.3,.2,.62,.37,.94,.55,.01,0,.02,0,.03,.01,.09,.04,.18,.08,.28,.12,.39,.17,.78,.32,1.17,.49,.11,.05,.22,.1,.33,.15,1.07,0,1.98,.61,2.98,.86,.03,0,.06-.02,.09-.02,.14-.01,.26,.03,.36,.11,.03,0,.06,.01,.09,.01,.21,.02,.36,.18,.39,.37,8.02-1.02,14.04-7.41,13.7-14.9Z"/>
  <path class="cls-2" d="M107.05,70.34s0,0,0,0c.06,.04,.11,.09,.14,.15,3.68-2.78,5.95-7.02,5.74-11.7-.36-7.97-7.79-14.17-16.59-13.84-8.8,.33-15.64,7.06-15.28,15.03,.17,3.73,1.89,7.07,4.58,9.54,.06-.03,.12-.07,.17-.1,1.02-.66,2.04-1.53,3.23-1.96,.06-.16,.21-.29,.41-.29,0-.02,0-.05,.01-.07,.05-.12,.17-.2,.3-.23,0-.13,.05-.27,.17-.34,.21-.13,.44-.24,.68-.32-.02-.27,.24-.56,.6-.43,.23,.09,.29,.27,.25,.45,0,0,.01,0,.02,0,0,0,0,0,.01,0,.11-.06,.24-.09,.39-.03,.27,.1,.32,.35,.22,.54,.19,.05,.33,.19,.3,.42-.15,.94-.81,1.65-1.2,2.5-.39,.84-.43,1.78-.89,2.61-.04,.07-.1,.12-.16,.16,2.26,.98,4.8,1.5,7.48,1.4,1.82-.07,3.55-.41,5.15-.98-.04-.23,.12-.48,.39-.5,.02-.21,.06-.43,.11-.65-.2-.19-.11-.5,.11-.63-.04-.15,.03-.32,.16-.42-.02-.17,.08-.34,.24-.42,.02-.22,.22-.41,.49-.38,.09-.03,.2-.04,.31,0,.01,0,.02,.01,.02,.01,.1-.15,.29-.25,.52-.16,.03,0,.04,.03,.06,.04,.05-.02,.1-.02,.16-.02,.11-.12,.28-.18,.49-.11,0,0,0,0,.01,0,.1-.06,.23-.09,.39-.03,.05,.02,.09,.04,.12,.07,.04,0,.08,0,.12,.02,.14,.05,.22,.14,.25,.24,.17,.05,.29,.19,.27,.41Z"/>
  <path class="cls-2" d="M108.49,58.2c-.36-7.97-7.79-14.17-16.59-13.84-8.8,.33-15.64,7.06-15.28,15.03,.2,4.41,2.57,8.27,6.13,10.79,.08-.02,.16-.03,.23-.05,.44-.08,.89-.14,1.34-.18,.16-.07,.31-.12,.46-.17,.14-.04,.26-.03,.36,.02,.22-.12,.44-.24,.66-.38,1.02-.66,2.04-1.53,3.23-1.96,.06-.16,.21-.29,.41-.29,0-.02,0-.05,.01-.07,.05-.12,.17-.2,.3-.23,0-.13,.05-.27,.17-.34,.21-.13,.44-.24,.68-.32-.02-.27,.24-.56,.6-.43,.23,.09,.29,.27,.25,.45,0,0,.01,0,.02,0,0,0,0,0,.01,0,.11-.06,.24-.09,.39-.03,.27,.1,.32,.35,.22,.54,.19,.05,.33,.19,.3,.42-.15,.94-.81,1.65-1.2,2.5-.39,.84-.43,1.78-.89,2.61-.04,.08-.11,.13-.17,.17-.04,.2-.09,.4-.13,.6,1.03,.16,2.1,.23,3.19,.19,8.8-.33,15.64-7.06,15.28-15.03Z"/>
  <path class="cls-3" d="M87.07,62.29c-.36-7.97-7.79-14.17-16.59-13.84-8.8,.33-15.64,7.06-15.28,15.03,.22,4.93,3.15,9.18,7.44,11.63,.6,0,1.2,.05,1.79,.17,.11-.1,.27-.16,.47-.09,.05,.02,.08,.04,.11,.07,.25-.11,.54-.14,.87-.02,.53,.2,.71,.6,.66,1,.05,.08,.11,.15,.14,.23,.05,.09,.08,.19,.1,.29,0,0,0,0,0,0,1.58,.41,3.26,.6,4.99,.54,1.73-.06,3.38-.38,4.92-.9-.03-.03-.05-.06-.07-.11-.39-1.09-.92-2.19-1.07-3.34-.12-.2-.23-.39-.35-.59-.02-.04-.03-.08-.03-.12-.38-.22-.15-.76,.26-.74,.04-.22,.25-.41,.54-.34,.07-.06,.15-.11,.24-.15,.07-.2,.3-.36,.58-.26,.06,.02,.1,.05,.14,.08,.08,0,.15-.02,.22-.02,.92-.07,1.85,.04,2.78,.07,.08-.2,.3-.34,.58-.24,.06,.02,.11,.06,.15,.09,.04,0,.07,.01,.11,.02,.1-.15,.29-.25,.53-.17,0,0,0,0,0,0,.52-.24,1.1-.38,1.64-.48,.44-.08,.89-.14,1.34-.18,.16-.07,.31-.12,.46-.17,.13-.04,.24-.03,.34,.01,1.34-2.22,2.07-4.79,1.95-7.51Z"/>
  <path class="cls-1" d="M136.06,61.27c-.36-7.97-7.79-14.17-16.59-13.84-8.8,.33-15.64,7.06-15.28,15.03,.16,3.43,1.62,6.54,3.95,8.93,.1,.1,.19,.19,.29,.29,1.65,1.62,3.71,2.88,6.01,3.68,.38,.08,.74,.2,1.1,.34,1.65,.45,3.42,.66,5.24,.6,8.8-.33,15.64-7.06,15.28-15.03Z"/>
  <path class="cls-1" d="M149.21,70.34c-.36-7.97-7.79-14.17-16.59-13.84-8.8,.33-15.64,7.06-15.28,15.03,.31,6.79,5.74,12.29,12.78,13.57,.33,.04,.66,.09,.99,.15,.92,.11,1.86,.16,2.82,.12,8.8-.33,15.64-7.06,15.28-15.03Z"/>
  <path class="cls-1" d="M165.48,87.75c-.36-7.97-7.79-14.17-16.59-13.84-7.81,.29-14.07,5.63-15.13,12.4,.02,.1,0,.2-.04,.29-.02,.16-.04,.33-.06,.5,.07,.3,.1,.61,.06,.9-.02,.17-.06,.33-.11,.48,0,.15,0,.3,0,.46,0,.05,0,.1,.01,.15,.03,.08,.04,.16,.02,.24,.58,7.78,7.9,13.77,16.56,13.45,8.8-.33,15.64-7.06,15.28-15.03Z"/>
  <ellipse class="cls-1" cx="155.57" cy="74.96" rx="15.95" ry="14.45"/>
  <ellipse class="cls-1" cx="155.12" cy="84.93" rx="15.95" ry="14.45"/>
  <ellipse class="cls-1" cx="162.99" cy="76.44" rx="15.95" ry="14.45"/>
  <ellipse class="cls-1" cx="70.3" cy="48.55" rx="15.95" ry="14.45"/>
  <path class="cls-1" d="M88.5,55.88c-8.8,.33-16.23-5.87-16.59-13.84-.36-7.97,6.48-14.7,15.28-15.03,8.8-.32,16.23,5.87,16.59,13.84,.36,7.98-6.48,14.7-15.28,15.03Z"/>
  <ellipse class="cls-1" cx="109.56" cy="39.73" rx="15.95" ry="14.45"/>
  <ellipse class="cls-1" cx="129.38" cy="47.06" rx="15.95" ry="14.45"/>
  <ellipse class="cls-1" cx="162.52" cy="66.13" rx="15.95" ry="14.45"/>
  <ellipse class="cls-1" cx="144.34" cy="55.21" rx="15.95" ry="14.45"/>
  <path class="cls-5" d="M70.28,44.18c-8.8,.33-16.23-5.87-16.59-13.84-.36-7.97,6.48-14.7,15.28-15.03,8.8-.32,16.23,5.87,16.59,13.84,.36,7.98-6.48,14.7-15.28,15.03Z"/>
  <path class="cls-5" d="M64.8,59.82c-8.8,.33-16.23-5.87-16.59-13.84-.36-7.97,6.48-14.7,15.28-15.03,8.8-.32,16.23,5.87,16.59,13.84,.36,7.98-6.48,14.7-15.28,15.03Z"/>
  <path class="cls-5" d="M63.04,67.33c-8.8,.33-16.23-5.87-16.59-13.84-.36-7.97,6.48-14.7,15.28-15.03,8.8-.32,16.23,5.87,16.59,13.84,.36,7.98-6.48,14.7-15.28,15.03Z"/>
  <path class="cls-5" d="M82.59,62.18c-8.8,.33-16.23-5.87-16.59-13.84-.36-7.97,6.48-14.7,15.28-15.03,8.8-.32,16.23,5.87,16.59,13.84,.36,7.98-6.48,14.7-15.28,15.03Z"/>
  <path class="cls-5" d="M82.22,37.95c-8.8,.33-16.23-5.87-16.59-13.84-.36-7.97,6.48-14.7,15.28-15.03,8.8-.32,16.23,5.87,16.59,13.84,.36,7.98-6.48,14.7-15.28,15.03Z"/>
  <path class="cls-5" d="M105.85,41.72c-8.8,.33-16.23-5.87-16.59-13.84-.36-7.97,6.48-14.7,15.28-15.03,8.8-.32,16.23,5.87,16.59,13.84,.36,7.98-6.48,14.7-15.28,15.03Z"/>
  <path class="cls-5" d="M93.8,37.27c-8.8,.33-16.23-5.87-16.59-13.84-.36-7.97,6.48-14.7,15.28-15.03,8.8-.32,16.23,5.87,16.59,13.84,.36,7.98-6.48,14.7-15.28,15.03Z"/>
  <path class="cls-5" d="M115.97,33.14c-8.8,.33-16.23-5.87-16.59-13.84-.36-7.97,6.48-14.7,15.28-15.03,8.8-.32,16.23,5.87,16.59,13.84,.36,7.98-6.48,14.7-15.28,15.03Z"/>
  <path class="cls-5" d="M120.23,60.05c-8.8,.33-16.23-5.87-16.59-13.84-.36-7.97,6.48-14.7,15.28-15.03,8.8-.32,16.23,5.87,16.59,13.84,.36,7.98-6.48,14.7-15.28,15.03Z"/>
  <path class="cls-5" d="M141.87,65.43c-8.8,.33-16.23-5.87-16.59-13.84-.36-7.97,6.48-14.7,15.28-15.03,8.8-.32,16.23,5.87,16.59,13.84,.36,7.98-6.48,14.7-15.28,15.03Z"/>
  <path class="cls-5" d="M155.06,79.44c-8.8,.33-16.23-5.87-16.59-13.84-.36-7.97,6.48-14.7,15.28-15.03,8.8-.32,16.23,5.87,16.59,13.84,.36,7.98-6.48,14.7-15.28,15.03Z"/>
  <path class="cls-5" d="M176.4,85.46c-8.8,.33-16.23-5.87-16.59-13.84-.36-7.97,6.48-14.7,15.28-15.03,8.8-.32,16.23,5.87,16.59,13.84,.36,7.98-6.48,14.7-15.28,15.03Z"/>
  <path class="cls-5" d="M166.34,96.66c-8.8,.33-16.23-5.87-16.59-13.84-.36-7.97,6.48-14.7,15.28-15.03,8.8-.32,16.23,5.87,16.59,13.84,.36,7.98-6.48,14.7-15.28,15.03Z"/>
  <path class="cls-5" d="M147.05,83.22c-8.8,.33-16.23-5.87-16.59-13.84-.36-7.97,6.48-14.7,15.28-15.03,8.8-.32,16.23,5.87,16.59,13.84,.36,7.98-6.48,14.7-15.28,15.03Z"/>
  <path class="cls-5" d="M129.35,69.31c-8.8,.33-16.23-5.87-16.59-13.84-.36-7.97,6.48-14.7,15.28-15.03,8.8-.32,16.23,5.87,16.59,13.84,.36,7.98-6.48,14.7-15.28,15.03Z"/>
  <path class="cls-5" d="M162.89,64.06c-8.81-.12-15.83-6.69-15.7-14.67,.14-7.98,7.39-14.34,16.19-14.22,8.81,.13,15.84,6.7,15.7,14.67-.14,7.98-7.39,14.35-16.19,14.22Z"/>
  <path class="cls-5" d="M126.93,52.8c-8.8,.33-16.23-5.87-16.59-13.84-.36-7.97,6.48-14.7,15.28-15.03,8.8-.32,16.23,5.87,16.59,13.84,.36,7.98-6.48,14.7-15.28,15.03Z"/>
  <path class="cls-5" d="M155.52,49.44c-8.8,.33-16.23-5.87-16.59-13.84-.36-7.97,6.48-14.7,15.28-15.03,8.8-.32,16.23,5.87,16.59,13.84,.36,7.98-6.48,14.7-15.28,15.03Z"/>
  <path class="cls-5" d="M138.03,38c-8.8,.33-16.23-5.87-16.59-13.84-.36-7.97,6.48-14.7,15.28-15.03,8.8-.32,16.23,5.87,16.59,13.84,.36,7.98-6.48,14.7-15.28,15.03Z"/>
  <path class="cls-5" d="M176.71,74.22c-8.8,.33-16.23-5.87-16.59-13.84-.36-7.97,6.48-14.7,15.28-15.03,8.8-.32,16.23,5.87,16.59,13.84,.36,7.98-6.48,14.7-15.28,15.03Z"/>
  <path class="cls-5" d="M122.76,47.97c-8.8,.33-16.23-5.87-16.59-13.84-.36-7.97,6.48-14.7,15.28-15.03,8.8-.32,16.23,5.87,16.59,13.84,.36,7.98-6.48,14.7-15.28,15.03Z"/>
  <path class="cls-5" d="M104.39,58.84c-8.8,.33-16.23-5.87-16.59-13.84-.36-7.97,6.48-14.7,15.28-15.03,8.8-.32,16.23,5.87,16.59,13.84,.36,7.98-6.48,14.7-15.28,15.03Z"/>
  <path class="cls-4" d="M191.3,145.24h0s0,0,0-.01c-.04-.38-.09-.77-.14-1.15-.15-1.18-.45-3.56-1.05-8.36h-1.1c-6.32-16.69-23.79-28.68-44.36-28.68-23.63,0-43.17,15.84-46.42,36.44h-3.5c-12.19,0-22.37,8.2-24.16,18.81h-1.21c.43,3.65,.73,6.19,.94,7.95,.02,1.37,.18,2.71,.47,4.01,0,.01,0,.01,0,.01h0c2.26,10.09,12.17,17.75,23.95,17.75h46.08c.53,0,1.05-.02,1.56-.05,.75,.03,1.51,.05,2.28,.05,25.9,0,46.89-19.02,46.89-42.48,0-1.44-.08-2.87-.24-4.27Z"/>
  <path class="cls-8" d="M144.2,99.45c-23.85-.22-43.64,15.69-46.9,36.43h-3.5c-13.44,0-24.43,9.96-24.43,22.14v4.26c0,12.18,11,22.14,24.43,22.14h46.08c.53,0,1.05-.02,1.56-.05,.75,.03,1.51,.05,2.28,.05,26.5,0,47.87-19.92,46.86-44.14-.95-22.53-21.48-40.6-46.37-40.83Z"/>
  <path class="cls-9" d="M144.37,105.61c-19.53,0-35.77,13.12-39.15,30.43-.53,2.72-3.17,4.69-6.22,4.69h-3.82c-10.83,0-19.62,7.96-19.62,17.78v3.59c0,9.82,8.78,17.78,19.62,17.78h49.16s0,0,0,0c0,0,0,0,.01,0,21.98,0,39.8-16.62,39.8-37.13s-17.82-37.13-39.8-37.13Z"/>
  <path class="cls-8" d="M186.24,133.39l-.02-.06c-.43-1.51-2.56-4.61-3.78-2l-52.52,12.99c-1.31,.32-11.1,2.64-12.77,1.08-1.15-1.07-3.58-3.49-3.82-3.83,0,0-1.93-1.66-9.69-7.45-1.33-.99-3.3-.8-4.36,.44l-.02,.03c-1.04,1.2-.83,2.94,.47,3.91,4.71,3.53,9.37,7.12,11.11,8.61,.35,.3,.66,.64,.92,1.01,4.7,6.75,6.81,14.34,6.26,22.58-.24,3.62-.97,6.61-1.56,8.53-.42,1.36,.32,2.8,1.74,3.36h0c1.7,.67,3.66-.17,4.17-1.8,1.51-4.84,3.58-14.9-.43-26.08-.45-1.26,.32-2.61,1.71-2.95l60.44-14.95c1.63-.4,2.6-1.93,2.17-3.43Z"/>
  <ellipse class="cls-8" cx="96.99" cy="158.76" rx="8.39" ry="7.6"/>
  <polygon class="cls-11" points="46.54 54.18 40.25 22.69 46.44 20.57 49.25 52.46 69.97 15.59 76.64 23.78 53.64 53.69 46.54 54.18"/>
  <polygon class="cls-6" points="46.32 49.42 49.66 5.5 55.65 4.98 49.8 49.05 56.56 17.62 64.78 19.36 52.85 49.91 80.19 0 86.46 4.78 55.68 50.7 83.86 22.22 89.59 27.68 59.23 51.69 55.92 56.8 46.54 54.18 46.32 49.42"/>
  <path class="cls-10" d="M73.45,85.54c-1.13,3.31-4.16,10.47-8.4,19.57-.97,2.1-2.01,4.29-3.11,6.57-3.26,6.8-6.99,14.31-10.99,21.91-1.13,2.15-2.28,4.32-3.45,6.47-5.48,10.13-11.28,20.12-16.88,28.52-1.46,2.19-2.9,4.27-4.32,6.22-7.68,10.57-14.65,17.24-19.36,15.92-7.77-2.17-8.03-25.65-5.58-51.59,.23-2.39,.48-4.8,.74-7.22,.6-5.43,1.31-10.89,2.06-16.22,.34-2.41,.69-4.8,1.06-7.14,1.64-10.68,3.43-20.45,5-27.85,.56-2.66,1.1-5.01,1.59-6.99,.53-2.14,1-3.84,1.4-5.02,5.13-15.07,22.78-23.51,39.4-18.86,11.7,3.27,19.78,12.15,21.75,22.37,.47,2.45,.6,4.98,.34,7.53-.2,1.93-.62,3.87-1.28,5.8Z"/>
  <path class="cls-7" d="M13.45,138.8c-.32,.93-1.03,1.66-1.92,2.09s-1.96,.54-2.99,.26l-7.18-2.01c.23-2.39,.48-4.8,.74-7.22l8.75,2.45c2.06,.58,3.23,2.57,2.59,4.44Z"/>
  <path class="cls-7" d="M32.4,83.19c-.32,.93-1.25,1.6-2.51,1.92-1.26,.32-2.84,.3-4.43-.15l-14.84-4.15c.39-2.71,.8-5.1,1.2-7.1l15.94,4.46c3.18,.89,5.26,3.15,4.63,5.01Z"/>
  <path class="cls-7" d="M30.63,168.58c-1.46,2.19-2.9,4.27-4.32,6.22l-8.98-2.51c-2.06-.58-3.22-2.57-2.59-4.44,.32-.93,1.03-1.67,1.92-2.09,.89-.43,1.95-.55,2.98-.26l10.99,3.07Z"/>
  <path class="cls-7" d="M74.72,79.75l-13.23-3.7c-2.06-.58-3.22-2.57-2.59-4.44,.32-.93,1.03-1.67,1.92-2.09,.89-.43,1.95-.55,2.98-.26l10.58,2.96c.47,2.45,.6,4.98,.34,7.53Z"/>
  <path class="cls-7" d="M65.05,105.12c-.97,2.1-2.01,4.29-3.11,6.57l-11.5-3.22c-2.06-.58-3.22-2.57-2.59-4.44,.32-.93,1.03-1.67,1.92-2.09,.89-.43,1.95-.55,2.98-.26l12.29,3.44Z"/>
  <path class="cls-7" d="M27.69,118.55c-.32,.93-1.03,1.67-1.92,2.09-.89,.43-1.95,.55-2.98,.26l-18.62-5.21c.34-2.41,.69-4.8,1.06-7.14l19.88,5.56c2.06,.58,3.22,2.58,2.59,4.44Z"/>
  <path class="cls-7" d="M50.95,133.59c-1.13,2.15-2.28,4.32-3.45,6.47l-3.17-.89c-2.06-.57-3.22-2.58-2.59-4.44,.32-.93,1.03-1.66,1.92-2.09,.89-.42,1.96-.54,2.98-.26l4.31,1.2Z"/>
  <path class="cls-7" d="M53.93,94.58l-5.2-1.45c-2.06-.58-3.22-2.57-2.59-4.44h0c.64-1.87,2.84-2.92,4.9-2.35l5.2,1.45c2.06,.58,3.22,2.57,2.59,4.44h0c-.64,1.87-2.84,2.92-4.9,2.35Z"/>
</svg>