<?xml version="1.0" encoding="UTF-8"?>
<svg id="Lag_1" data-name="Lag 1" xmlns="http://www.w3.org/2000/svg" viewBox="0 0 32 32">
  <defs>
    <style>
      .cls-1, .cls-2, .cls-3 {
        fill: #248841;
      }

      .cls-4 {
        fill: #e2a492;
      }

      .cls-5 {
        fill: #099046;
      }

      .cls-6 {
        fill: #98bb1f;
      }

      .cls-7 {
        fill: #dc800c;
      }

      .cls-2 {
        opacity: .05;
      }

      .cls-2, .cls-3 {
        isolation: isolate;
      }

      .cls-8 {
        fill: #fae5d3;
      }

      .cls-9 {
        fill: #e73645;
      }

      .cls-10 {
        fill: #f7a414;
      }

      .cls-3 {
        opacity: .1;
      }

      .cls-11 {
        fill: #708d2b;
      }

      .cls-12 {
        fill: #a5c83d;
      }
    </style>
  </defs>
  <path class="cls-12" d="M24.06,15.58l-1.22-.95-.8,.58s-.02,.02-.03,.02l-.04,.03s-.01,.01-.02,.02l-3.3,2.4c-.12-.96,5.1-6.59,5.1-6.59l-1.39-1.2-4.96,5.35-1,1c-.81-1.33,1.86-6.74,1.86-6.74l-1.45-.53c-.4,.16-.91,1.11-1.4,2.24-.01,.08-.05,.16-.1,.23-.06,.15-.13,.31-.19,.46-.01,.05-.03,.1-.06,.15h0s-.03,.08-.05,.13c0,0,0,.02,0,.03,0,.01,0,.02-.02,.03-.66,1.7-1.19,3.42-1.19,3.42l-1.91-5.32-1.75,.22c1.95,1.1,1.48,12.94,1.69,13.54s3.54,1.31,3.54,1.31c-.44-1.01,8.7-9.83,8.7-9.83h0Z"/>
  <ellipse class="cls-1" cx="13.2" cy="8.37" rx="2.66" ry="2.41"/>
  <ellipse class="cls-1" cx="17.09" cy="9.23" rx="2.66" ry="2.41"/>
  <path class="cls-1" d="M22.68,10.21c-.06-1.33-1.3-2.36-2.76-2.31s-2.61,1.18-2.55,2.5c.03,.57,.27,1.09,.66,1.49l.05,.05c.27,.27,.62,.48,1,.61,.06,.01,.12,.03,.18,.06,.27,.07,.57,.11,.87,.1,1.47-.05,2.61-1.18,2.55-2.5Z"/>
  <path class="cls-1" d="M24.87,11.72c-.06-1.33-1.3-2.36-2.76-2.31-1.47,.05-2.61,1.18-2.55,2.5,.05,1.13,.96,2.05,2.13,2.26,.05,0,.11,.01,.16,.02,.15,.02,.31,.03,.47,.02,1.47-.05,2.61-1.18,2.55-2.5h0Z"/>
  <path class="cls-1" d="M27.58,14.62c-.06-1.33-1.3-2.36-2.76-2.31-1.3,.05-2.34,.94-2.52,2.07,0,.02,0,.03,0,.05,0,.03,0,.05,0,.08,.01,.05,.02,.1,0,.15,0,.03,0,.05-.02,.08v.08s0,.02,0,.02c0,.01,0,.03,0,.04,.1,1.3,1.32,2.29,2.76,2.24,1.47-.05,2.61-1.18,2.55-2.5Z"/>
  <ellipse class="cls-1" cx="25.93" cy="12.49" rx="2.66" ry="2.41"/>
  <ellipse class="cls-1" cx="25.85" cy="14.15" rx="2.66" ry="2.41"/>
  <ellipse class="cls-1" cx="27.16" cy="12.74" rx="2.66" ry="2.41"/>
  <ellipse class="cls-1" cx="11.72" cy="8.09" rx="2.66" ry="2.41"/>
  <ellipse class="cls-1" cx="14.64" cy="6.91" rx="2.66" ry="2.41"/>
  <ellipse class="cls-1" cx="18.26" cy="6.62" rx="2.66" ry="2.41"/>
  <ellipse class="cls-1" cx="21.56" cy="7.84" rx="2.66" ry="2.41"/>
  <ellipse class="cls-1" cx="27.09" cy="11.02" rx="2.66" ry="2.41"/>
  <ellipse class="cls-1" cx="24.06" cy="9.2" rx="2.66" ry="2.41"/>
  <path class="cls-1" d="M12.61,11.87c.28-.23,.51-.52,.66-.86,.55-1.23-.1-2.64-1.46-3.14s-2.91,.09-3.46,1.32,.1,2.64,1.46,3.14c.97,.36,2.05,.16,2.78-.44,0,0,.01-.01,.02-.02h0Z"/>
  <ellipse class="cls-1" cx="13.48" cy="9.08" rx="2.66" ry="2.41"/>
  <ellipse class="cls-1" cx="17.12" cy="9.16" rx="2.66" ry="2.41"/>
  <ellipse class="cls-1" cx="20.05" cy="10.25" rx="2.66" ry="2.41"/>
  <ellipse class="cls-1" cx="22.24" cy="11.76" rx="2.66" ry="2.41"/>
  <ellipse class="cls-1" cx="24.95" cy="14.66" rx="2.66" ry="2.41"/>
  <ellipse class="cls-1" cx="25.96" cy="12.43" rx="2.66" ry="2.41"/>
  <ellipse class="cls-1" cx="25.88" cy="14.09" rx="2.66" ry="2.41"/>
  <ellipse class="cls-1" cx="27.19" cy="12.68" rx="2.66" ry="2.41"/>
  <ellipse class="cls-1" cx="11.75" cy="8.03" rx="2.66" ry="2.41"/>
  <ellipse class="cls-1" cx="14.67" cy="6.84" rx="2.66" ry="2.41"/>
  <ellipse class="cls-1" cx="18.29" cy="6.56" rx="2.66" ry="2.41"/>
  <ellipse class="cls-1" cx="21.59" cy="7.78" rx="2.66" ry="2.41"/>
  <ellipse class="cls-1" cx="27.11" cy="10.96" rx="2.66" ry="2.41"/>
  <ellipse class="cls-1" cx="24.09" cy="9.14" rx="2.66" ry="2.41"/>
  <ellipse class="cls-1" cx="10.97" cy="9.39" rx="2.66" ry="2.41"/>
  <path class="cls-1" d="M14.12,7.14c-1.36-.5-2.91,.09-3.46,1.32s.1,2.64,1.46,3.14c.5,.19,1.03,.22,1.53,.13,.06-.02,.13-.03,.19-.05,.02,0,.03,0,.05,0,.22-.06,.44-.15,.63-.26,.07-.05,.13-.09,.21-.13,.37-.25,.67-.59,.86-1.01,.55-1.23-.1-2.64-1.46-3.14h0Z"/>
  <ellipse class="cls-1" cx="17.09" cy="9.23" rx="2.66" ry="2.41"/>
  <path class="cls-3" d="M26.84,14.18c-.06-1.33-1.3-2.36-2.76-2.31-1.39,.05-2.48,1.06-2.54,2.29,.04,0,.08,0,.12,.01,.12,.01,.26,.03,.37,.08,0,0,.02,0,.02,0,.03-.02,.08-.02,.1,.01,0,0,0,0,0,0,.01,0,.03-.01,.05-.01,.06,0,.07,.05,.06,.09,.05,.03,.04,.09,0,.11,.03,.06,.04,.14,.03,.2,0,.05-.02,.1-.05,.15,.05,.02,.04,.08,0,.11h0c.06,.05,0,.15-.07,.13,0,0,0,0,0,0,0,.04-.03,.08-.07,.08,0,.02-.03,.04-.05,.04,0,.03-.03,.05-.07,.05,0,.03-.03,.05-.07,.05-.02,.03-.05,.05-.08,.07,0,0,0,0,0,0,.45,.82,1.4,1.37,2.48,1.33,1.47-.05,2.61-1.18,2.55-2.5h0Z"/>
  <path class="cls-3" d="M23.89,11.54c-.13-1.32-1.42-2.3-2.89-2.18-1.46,.12-2.54,1.29-2.41,2.62,.01,.15,.05,.3,.09,.45,0,0,.02,0,.03,.01,.06,.03,.13,.05,.19,.08,.02,0,.04,.02,.05,.02,.18,0,.33,.1,.5,.14,0,0,0,0,.01,0,.02,0,.04,0,.06,.02,0,0,0,0,.01,0,.04,0,.07,.04,.06,.07,0,.03-.02,.06-.04,.08-.02,.01-.04,.02-.06,.04h0s-.01,.06-.04,.07c0,0-.02,0-.03,0-.02,.04-.05,.09-.1,.11-.02,.04-.06,.08-.1,.12-.02,.02-.04,.05-.08,.06,.46,.52,1.15,.86,1.91,.9h0c-.02-.05,.03-.11,.1-.09,.05,.02,.1,.04,.15,.06,.03,0,.06,.01,.09,.01,.02,0,.05,0,.08,0,1.45-.13,2.52-1.29,2.39-2.61h0Z"/>
  <path class="cls-3" d="M21.91,10.28c-.06-1.33-1.3-2.36-2.76-2.31-1.47,.05-2.61,1.18-2.55,2.5,.02,.55,.25,1.04,.61,1.43,0-.03,0-.05,.03-.07,0-.02,0-.05,.03-.07,0-.03,.01-.06,.04-.07,0-.04,.04-.07,.08-.06,.01,0,.03,0,.05,0,0,0,0,0,0,0,.02-.02,.05-.04,.09-.03,0,0,0,0,0,0,0,0,.02,0,.03,0,.02-.02,.05-.03,.08-.02h0s.04-.01,.06,0c0,0,.01,0,.02,.01,0,0,.01,0,.02,0,.02,0,.04,.02,.04,.04,.03,0,.05,.03,.04,.07h0s.02,.03,.03,.04c.03,.01,.05,.03,.07,.05,.16,.16,.31,.32,.49,.46,.02,.01,.05,.03,.07,.05,0,0,0,0,0,0,.05,.03,.1,.06,.16,.09,0,0,0,0,0,0,.01,0,.03,.01,.05,.02,.06,.03,.13,.05,.19,.08,.02,0,.04,.02,.05,.02,.18,0,.33,.1,.5,.14,0,0,0,0,.01,0,.02,0,.04,0,.06,.02,0,0,0,0,.01,0,.03,0,.06,.03,.06,.06,1.34-.17,2.34-1.23,2.28-2.48h0Z"/>
  <path class="cls-2" d="M17.84,11.72h0s.02,.01,.02,.02c.61-.46,.99-1.17,.96-1.95-.06-1.33-1.3-2.36-2.76-2.31s-2.61,1.18-2.55,2.5c.03,.62,.31,1.18,.76,1.59,0,0,.02-.01,.03-.02,.17-.11,.34-.25,.54-.33,0-.03,.03-.05,.07-.05,0,0,0,0,0-.01,0-.02,.03-.03,.05-.04,0-.02,0-.04,.03-.06,.03-.02,.07-.04,.11-.05,0-.04,.04-.09,.1-.07,.04,.01,.05,.04,.04,.07h0s.04-.01,.06,0c.04,.02,.05,.06,.04,.09,.03,0,.05,.03,.05,.07-.02,.16-.13,.27-.2,.42-.06,.14-.07,.3-.15,.43,0,.01-.02,.02-.03,.03,.38,.16,.8,.25,1.25,.23,.3-.01,.59-.07,.86-.16,0-.04,.02-.08,.06-.08,0-.03,0-.07,.02-.11-.03-.03-.02-.08,.02-.1,0-.02,0-.05,.03-.07,0-.03,.01-.06,.04-.07,0-.04,.04-.07,.08-.06,.01,0,.03,0,.05,0,0,0,0,0,0,0,.02-.02,.05-.04,.09-.03,0,0,0,0,0,0,0,0,.02,0,.03,0,.02-.02,.05-.03,.08-.02h0s.04-.01,.06,0c0,0,.01,0,.02,.01,0,0,.01,0,.02,0,.02,0,.04,.02,.04,.04,.03,0,.05,.03,.04,.07h0Z"/>
  <path class="cls-2" d="M18.08,9.7c-.06-1.33-1.3-2.36-2.76-2.31s-2.61,1.18-2.55,2.5c.03,.73,.43,1.38,1.02,1.8,.01,0,.03,0,.04,0,.07-.01,.15-.02,.22-.03,.03-.01,.05-.02,.08-.03,.02,0,.04,0,.06,0,.04-.02,.07-.04,.11-.06,.17-.11,.34-.25,.54-.33,0-.03,.03-.05,.07-.05,0,0,0,0,0-.01,0-.02,.03-.03,.05-.04,0-.02,0-.04,.03-.06,.03-.02,.07-.04,.11-.05,0-.04,.04-.09,.1-.07,.04,.01,.05,.04,.04,.07h0s.04-.01,.06,0c.04,.02,.05,.06,.04,.09,.03,0,.05,.03,.05,.07-.02,.16-.13,.27-.2,.42-.06,.14-.07,.3-.15,.43,0,.01-.02,.02-.03,.03,0,.03-.01,.07-.02,.1,.17,.03,.35,.04,.53,.03,1.47-.05,2.61-1.18,2.55-2.5h0Z"/>
  <path class="cls-3" d="M14.51,10.38c-.06-1.33-1.3-2.36-2.76-2.31-1.47,.05-2.61,1.18-2.55,2.5,.04,.82,.52,1.53,1.24,1.94,.1,0,.2,0,.3,.03,.02-.02,.04-.03,.08-.01,0,0,.01,0,.02,.01,.04-.02,.09-.02,.14,0,.09,.03,.12,.1,.11,.17,0,.01,.02,.02,.02,.04,0,.01,.01,.03,.02,.05h0c.26,.07,.54,.1,.83,.09,.29,0,.56-.06,.82-.15,0,0,0,0-.01-.02-.06-.18-.15-.36-.18-.56-.02-.03-.04-.06-.06-.1,0,0,0-.01,0-.02-.06-.04-.02-.13,.04-.12,0-.04,.04-.07,.09-.06,.01,0,.02-.02,.04-.02,.01-.03,.05-.06,.1-.04,0,0,.02,0,.02,.01,.01,0,.02,0,.04,0,.15-.01,.31,0,.46,.01,.01-.03,.05-.06,.1-.04,0,0,.02,0,.02,.01,0,0,.01,0,.02,0,.02-.02,.05-.04,.09-.03h0c.09-.04,.18-.06,.27-.08,.07-.01,.15-.02,.22-.03,.03-.01,.05-.02,.08-.03,.02,0,.04,0,.06,0,.22-.37,.34-.8,.32-1.25h0Z"/>
  <path class="cls-1" d="M22.68,10.21c-.06-1.33-1.3-2.36-2.76-2.31s-2.61,1.18-2.55,2.5c.03,.57,.27,1.09,.66,1.49l.05,.05c.27,.27,.62,.48,1,.61,.06,.01,.12,.03,.18,.06,.27,.07,.57,.11,.87,.1,1.47-.05,2.61-1.18,2.55-2.5Z"/>
  <path class="cls-1" d="M24.87,11.72c-.06-1.33-1.3-2.36-2.76-2.31-1.47,.05-2.61,1.18-2.55,2.5,.05,1.13,.96,2.05,2.13,2.26,.05,0,.11,.01,.16,.02,.15,.02,.31,.03,.47,.02,1.47-.05,2.61-1.18,2.55-2.5h0Z"/>
  <path class="cls-1" d="M27.58,14.62c-.06-1.33-1.3-2.36-2.76-2.31-1.3,.05-2.34,.94-2.52,2.07,0,.02,0,.03,0,.05,0,.03,0,.05,0,.08,.01,.05,.02,.1,0,.15,0,.03,0,.05-.02,.08v.08s0,.02,0,.02c0,.01,0,.03,0,.04,.1,1.3,1.32,2.29,2.76,2.24,1.47-.05,2.61-1.18,2.55-2.5Z"/>
  <ellipse class="cls-1" cx="25.93" cy="12.49" rx="2.66" ry="2.41"/>
  <ellipse class="cls-1" cx="25.85" cy="14.15" rx="2.66" ry="2.41"/>
  <ellipse class="cls-1" cx="27.16" cy="12.74" rx="2.66" ry="2.41"/>
  <ellipse class="cls-1" cx="11.72" cy="8.09" rx="2.66" ry="2.41"/>
  <path class="cls-1" d="M14.75,9.31c-1.47,.05-2.7-.98-2.76-2.31s1.08-2.45,2.55-2.5c1.47-.05,2.7,.98,2.76,2.31,.06,1.33-1.08,2.45-2.55,2.5Z"/>
  <ellipse class="cls-1" cx="18.26" cy="6.62" rx="2.66" ry="2.41"/>
  <ellipse class="cls-1" cx="21.56" cy="7.84" rx="2.66" ry="2.41"/>
  <ellipse class="cls-1" cx="27.09" cy="11.02" rx="2.66" ry="2.41"/>
  <ellipse class="cls-1" cx="24.06" cy="9.2" rx="2.66" ry="2.41"/>
  <path class="cls-5" d="M11.71,7.36c-1.47,.05-2.7-.98-2.76-2.31-.06-1.33,1.08-2.45,2.55-2.5,1.47-.05,2.7,.98,2.76,2.31,.06,1.33-1.08,2.45-2.55,2.5Z"/>
  <path class="cls-5" d="M10.8,9.97c-1.47,.05-2.7-.98-2.76-2.31s1.08-2.45,2.55-2.5c1.47-.05,2.7,.98,2.76,2.31,.06,1.33-1.08,2.45-2.55,2.5Z"/>
  <path class="cls-5" d="M10.51,11.22c-1.47,.05-2.7-.98-2.76-2.31s1.08-2.45,2.55-2.5c1.47-.05,2.7,.98,2.76,2.31,.06,1.33-1.08,2.45-2.55,2.5Z"/>
  <path class="cls-5" d="M13.77,10.36c-1.47,.05-2.7-.98-2.76-2.31s1.08-2.45,2.55-2.5c1.47-.05,2.7,.98,2.76,2.31,.06,1.33-1.08,2.45-2.55,2.5Z"/>
  <path class="cls-5" d="M13.7,6.32c-1.47,.05-2.7-.98-2.76-2.31-.06-1.33,1.08-2.45,2.55-2.5,1.47-.05,2.7,.98,2.76,2.31,.06,1.33-1.08,2.45-2.55,2.5Z"/>
  <path class="cls-5" d="M17.64,6.95c-1.47,.05-2.7-.98-2.76-2.31-.06-1.33,1.08-2.45,2.55-2.5,1.47-.05,2.7,.98,2.76,2.31,.06,1.33-1.08,2.45-2.55,2.5Z"/>
  <path class="cls-5" d="M15.63,6.21c-1.47,.05-2.7-.98-2.76-2.31-.06-1.33,1.08-2.45,2.55-2.5,1.47-.05,2.7,.98,2.76,2.31,.06,1.33-1.08,2.45-2.55,2.5Z"/>
  <path class="cls-5" d="M19.33,5.52c-1.47,.05-2.7-.98-2.76-2.31-.06-1.33,1.08-2.45,2.55-2.5,1.47-.05,2.7,.98,2.76,2.31,.06,1.33-1.08,2.45-2.55,2.5Z"/>
  <path class="cls-5" d="M20.04,10.01c-1.47,.05-2.7-.98-2.76-2.31s1.08-2.45,2.55-2.5c1.47-.05,2.7,.98,2.76,2.31,.06,1.33-1.08,2.45-2.55,2.5Z"/>
  <path class="cls-5" d="M23.65,10.9c-1.47,.05-2.7-.98-2.76-2.31s1.08-2.45,2.55-2.5c1.47-.05,2.7,.98,2.76,2.31,.06,1.33-1.08,2.45-2.55,2.5Z"/>
  <path class="cls-5" d="M25.84,13.24c-1.47,.05-2.7-.98-2.76-2.31-.06-1.33,1.08-2.45,2.55-2.5,1.47-.05,2.7,.98,2.76,2.31,.06,1.33-1.08,2.45-2.55,2.5Z"/>
  <path class="cls-5" d="M29.4,14.24c-1.47,.05-2.7-.98-2.76-2.31s1.08-2.45,2.55-2.5c1.47-.05,2.7,.98,2.76,2.31,.06,1.33-1.08,2.45-2.55,2.5Z"/>
  <path class="cls-5" d="M27.72,16.11c-1.47,.05-2.7-.98-2.76-2.31-.06-1.33,1.08-2.45,2.55-2.5,1.47-.05,2.7,.98,2.76,2.31,.06,1.33-1.08,2.45-2.55,2.5Z"/>
  <path class="cls-5" d="M24.51,13.87c-1.47,.05-2.7-.98-2.76-2.31-.06-1.33,1.08-2.45,2.55-2.5,1.47-.05,2.7,.98,2.76,2.31,.06,1.33-1.08,2.45-2.55,2.5Z"/>
  <path class="cls-5" d="M21.56,11.55c-1.47,.05-2.7-.98-2.76-2.31s1.08-2.45,2.55-2.5c1.47-.05,2.7,.98,2.76,2.31,.06,1.33-1.08,2.45-2.55,2.5Z"/>
  <path class="cls-5" d="M27.15,10.68c-1.47-.02-2.64-1.11-2.62-2.44,.02-1.33,1.23-2.39,2.7-2.37,1.47,.02,2.64,1.12,2.62,2.44-.02,1.33-1.23,2.39-2.7,2.37Z"/>
  <path class="cls-5" d="M21.16,8.8c-1.47,.05-2.7-.98-2.76-2.31-.06-1.33,1.08-2.45,2.55-2.5,1.47-.05,2.7,.98,2.76,2.31,.06,1.33-1.08,2.45-2.55,2.5Z"/>
  <path class="cls-5" d="M25.92,8.24c-1.47,.05-2.7-.98-2.76-2.31-.06-1.33,1.08-2.45,2.55-2.5,1.47-.05,2.7,.98,2.76,2.31,.06,1.33-1.08,2.45-2.55,2.5Z"/>
  <path class="cls-5" d="M23.01,6.33c-1.47,.05-2.7-.98-2.76-2.31-.06-1.33,1.08-2.45,2.55-2.5,1.47-.05,2.7,.98,2.76,2.31,.06,1.33-1.08,2.45-2.55,2.5Z"/>
  <path class="cls-5" d="M29.45,12.37c-1.47,.05-2.7-.98-2.76-2.31-.06-1.33,1.08-2.45,2.55-2.5,1.47-.05,2.7,.98,2.76,2.31,.06,1.33-1.08,2.45-2.55,2.5Z"/>
  <path class="cls-5" d="M20.46,7.99c-1.47,.05-2.7-.98-2.76-2.31-.06-1.33,1.08-2.45,2.55-2.5,1.47-.05,2.7,.98,2.76,2.31,.06,1.33-1.08,2.45-2.55,2.5Z"/>
  <path class="cls-5" d="M17.4,9.81c-1.47,.05-2.7-.98-2.76-2.31s1.08-2.45,2.55-2.5c1.47-.05,2.7,.98,2.76,2.31,.06,1.33-1.08,2.45-2.55,2.5Z"/>
  <path class="cls-4" d="M31.88,24.21h0c0-.06-.01-.13-.02-.19-.02-.2-.07-.59-.17-1.39h-.18c-1.05-2.78-3.96-4.78-7.39-4.78-3.94,0-7.19,2.64-7.74,6.07h-.58c-2.03,0-3.73,1.37-4.03,3.13h-.2c.07,.61,.12,1.03,.16,1.32,0,.23,.03,.45,.08,.67h0c.38,1.68,2.03,2.96,3.99,2.96h7.68c.09,0,.17,0,.26,0,.12,0,.25,0,.38,0,4.32,0,7.81-3.17,7.81-7.08,0-.24-.01-.48-.04-.71h0Z"/>
  <path class="cls-8" d="M24.03,16.57c-3.97-.04-7.27,2.61-7.82,6.07h-.58c-2.24,0-4.07,1.66-4.07,3.69v.71c0,2.03,1.83,3.69,4.07,3.69h7.68c.09,0,.17,0,.26,0,.12,0,.25,0,.38,0,4.42,0,7.98-3.32,7.81-7.36-.16-3.75-3.58-6.77-7.73-6.8h0Z"/>
  <path class="cls-9" d="M24.06,17.6c-3.25,0-5.96,2.19-6.52,5.07-.09,.45-.53,.78-1.04,.78h-.64c-1.8,0-3.27,1.33-3.27,2.96v.6c0,1.64,1.46,2.96,3.27,2.96h8.19c3.66,0,6.63-2.77,6.63-6.19s-2.97-6.19-6.63-6.19h0Z"/>
  <path class="cls-8" d="M31.04,22.23h0c-.07-.26-.43-.78-.63-.34l-8.75,2.16c-.22,.05-1.85,.44-2.13,.18-.19-.18-.6-.58-.64-.64,0,0-.32-.28-1.61-1.24-.22-.16-.55-.13-.73,.07h0c-.17,.2-.14,.49,.08,.66,.78,.59,1.56,1.19,1.85,1.43,.06,.05,.11,.11,.15,.17,.78,1.12,1.13,2.39,1.04,3.76-.04,.6-.16,1.1-.26,1.42-.07,.23,.05,.47,.29,.56h0c.28,.11,.61-.03,.69-.3,.25-.81,.6-2.48-.07-4.35-.07-.21,.05-.43,.28-.49l10.07-2.49c.27-.07,.43-.32,.36-.57h0Z"/>
  <ellipse class="cls-8" cx="16.17" cy="26.46" rx="1.4" ry="1.27"/>
  <polygon class="cls-11" points="7.76 9.03 6.71 3.78 7.74 3.43 8.21 8.74 11.66 2.6 12.77 3.96 8.94 8.95 7.76 9.03"/>
  <polygon class="cls-6" points="7.72 8.24 8.28 .92 9.28 .83 8.3 8.17 9.43 2.94 10.8 3.23 8.81 8.32 13.37 0 14.41 .8 9.28 8.45 13.98 3.7 14.93 4.61 9.87 8.61 9.32 9.47 7.76 9.03 7.72 8.24"/>
  <path class="cls-10" d="M12.24,14.26c-.19,.55-.69,1.74-1.4,3.26-.16,.35-.33,.71-.52,1.09-.54,1.13-1.16,2.38-1.83,3.65-.19,.36-.38,.72-.57,1.08-.91,1.69-1.88,3.35-2.81,4.75-.24,.36-.48,.71-.72,1.04-1.28,1.76-2.44,2.87-3.23,2.65-1.29-.36-1.34-4.27-.93-8.6,.04-.4,.08-.8,.12-1.2,.1-.9,.22-1.81,.34-2.7,.06-.4,.11-.8,.18-1.19,.27-1.78,.57-3.41,.83-4.64,.09-.44,.18-.83,.26-1.16,.09-.36,.17-.64,.23-.84,.85-2.51,3.8-3.92,6.57-3.14,1.95,.54,3.3,2.02,3.62,3.73,.08,.41,.1,.83,.06,1.25-.03,.32-.1,.64-.21,.97h0Z"/>
  <path class="cls-7" d="M2.24,23.13c-.05,.15-.17,.28-.32,.35s-.33,.09-.5,.04l-1.2-.33c.04-.4,.08-.8,.12-1.2l1.46,.41c.34,.1,.54,.43,.43,.74h0Z"/>
  <path class="cls-7" d="M5.4,13.86c-.05,.15-.21,.27-.42,.32s-.47,.05-.74-.02l-2.47-.69c.06-.45,.13-.85,.2-1.18l2.66,.74c.53,.15,.88,.52,.77,.83h0Z"/>
  <path class="cls-7" d="M5.11,28.1c-.24,.36-.48,.71-.72,1.04l-1.5-.42c-.34-.1-.54-.43-.43-.74,.05-.15,.17-.28,.32-.35,.15-.07,.32-.09,.5-.04l1.83,.51h0Z"/>
  <path class="cls-7" d="M12.45,13.29l-2.2-.62c-.34-.1-.54-.43-.43-.74,.05-.15,.17-.28,.32-.35,.15-.07,.32-.09,.5-.04l1.76,.49c.08,.41,.1,.83,.06,1.25Z"/>
  <path class="cls-7" d="M10.84,17.52c-.16,.35-.33,.71-.52,1.09l-1.92-.54c-.34-.1-.54-.43-.43-.74,.05-.15,.17-.28,.32-.35,.15-.07,.32-.09,.5-.04l2.05,.57h0Z"/>
  <path class="cls-7" d="M4.62,19.76c-.05,.15-.17,.28-.32,.35-.15,.07-.32,.09-.5,.04l-3.1-.87c.06-.4,.11-.8,.18-1.19l3.31,.93c.34,.1,.54,.43,.43,.74h0Z"/>
  <path class="cls-7" d="M8.49,22.26c-.19,.36-.38,.72-.57,1.08l-.53-.15c-.34-.09-.54-.43-.43-.74,.05-.15,.17-.28,.32-.35,.15-.07,.33-.09,.5-.04l.72,.2h0Z"/>
  <path class="cls-7" d="M8.99,15.76l-.87-.24c-.34-.1-.54-.43-.43-.74h0c.11-.31,.47-.49,.82-.39l.87,.24c.34,.1,.54,.43,.43,.74h0c-.11,.31-.47,.49-.82,.39Z"/>
</svg>