<?xml version="1.0" encoding="UTF-8"?>
<svg id="Lag_1" data-name="Lag 1" xmlns="http://www.w3.org/2000/svg" viewBox="0 0 512 512">
  <defs>
    <style>
      .cls-1, .cls-2, .cls-3 {
        fill: #248841;
      }

      .cls-4 {
        fill: #e2a492;
      }

      .cls-5 {
        fill: #099046;
      }

      .cls-6 {
        fill: #98bb1f;
      }

      .cls-7 {
        fill: #dc800c;
      }

      .cls-2 {
        opacity: .05;
      }

      .cls-8 {
        fill: #fae5d3;
      }

      .cls-9 {
        fill: #e73645;
      }

      .cls-10 {
        fill: #f7a414;
      }

      .cls-11 {
        fill: #708d2b;
      }

      .cls-3 {
        opacity: .1;
      }

      .cls-12 {
        fill: #a5c83d;
      }
    </style>
  </defs>
  <path class="cls-12" d="M384.91,249.26l-19.6-15.23-12.8,9.32c-.14,.19-.32,.33-.56,.4l-.63,.46c-.1,.11-.23,.21-.37,.27l-52.87,38.49c-1.93-15.31,81.69-105.53,81.69-105.53l-22.22-19.2-79.3,85.55-16.04,16.04c-13.01-21.29,29.81-107.83,29.81-107.83l-23.15-8.56c-6.42,2.58-14.63,17.7-22.44,35.81-.25,1.34-.87,2.51-1.56,3.66-1.02,2.43-2.03,4.9-3.03,7.39-.24,.83-.53,1.65-.95,2.42,0,0-.01,0-.01,.02-.27,.69-.54,1.37-.81,2.06-.03,.14-.06,.28-.09,.42-.04,.22-.15,.39-.28,.52-10.56,27.19-19.02,54.73-19.02,54.73l-30.54-85.19-28.08,3.6c31.24,17.54,23.65,206.99,26.99,216.72,3.34,9.72,56.7,20.96,56.7,20.96-7.08-16.1,139.17-157.3,139.17-157.3Z"/>
  <ellipse class="cls-1" cx="211.14" cy="134" rx="42.52" ry="38.53"/>
  <ellipse class="cls-1" cx="273.4" cy="147.62" rx="42.52" ry="38.53"/>
  <path class="cls-1" d="M362.83,163.39c-.96-21.26-20.77-37.79-44.24-36.91-23.47,.87-41.71,18.82-40.74,40.08,.42,9.16,4.33,17.43,10.52,23.82,.26,.26,.51,.51,.77,.77,4.41,4.31,9.89,7.69,16.04,9.82,1.01,.2,1.97,.55,2.93,.92,4.41,1.2,9.11,1.77,13.97,1.59,23.47-.87,41.71-18.82,40.74-40.08Z"/>
  <path class="cls-1" d="M397.88,187.57c-.96-21.26-20.77-37.79-44.24-36.91-23.47,.87-41.71,18.82-40.74,40.08,.82,18.11,15.31,32.77,34.08,36.19,.87,.11,1.76,.23,2.63,.4,2.45,.3,4.96,.42,7.52,.33,23.47-.87,41.71-18.82,40.74-40.08Z"/>
  <path class="cls-1" d="M441.27,234.01c-.96-21.26-20.77-37.79-44.24-36.91-20.83,.78-37.53,15.01-40.34,33.07,.07,.26,.02,.53-.11,.78-.06,.44-.12,.88-.16,1.32,.2,.79,.26,1.61,.15,2.4-.06,.45-.17,.88-.3,1.29,0,.4,0,.81,.02,1.21,0,.14,.02,.27,.03,.41,.09,.2,.1,.42,.05,.63,1.56,20.75,21.08,36.73,44.16,35.87,23.47-.87,41.71-18.82,40.74-40.08Z"/>
  <ellipse class="cls-1" cx="414.85" cy="199.91" rx="42.52" ry="38.53"/>
  <ellipse class="cls-1" cx="413.64" cy="226.48" rx="42.52" ry="38.53"/>
  <ellipse class="cls-1" cx="434.63" cy="203.84" rx="42.52" ry="38.53"/>
  <ellipse class="cls-1" cx="187.46" cy="129.47" rx="42.52" ry="38.53"/>
  <ellipse class="cls-1" cx="234.26" cy="110.52" rx="42.52" ry="38.53"/>
  <ellipse class="cls-1" cx="292.16" cy="105.95" rx="42.52" ry="38.53"/>
  <ellipse class="cls-1" cx="345.03" cy="125.49" rx="42.52" ry="38.53"/>
  <ellipse class="cls-1" cx="433.39" cy="176.36" rx="42.52" ry="38.53"/>
  <ellipse class="cls-1" cx="384.92" cy="147.22" rx="42.52" ry="38.53"/>
  <path class="cls-1" d="M201.8,189.9c4.48-3.72,8.15-8.38,10.6-13.82,8.87-19.7-1.57-42.19-23.31-50.23-21.75-8.04-46.57,1.42-55.44,21.12-8.87,19.7,1.57,42.19,23.31,50.23,15.59,5.76,32.77,2.53,44.51-7.02,.09-.11,.2-.21,.33-.28Z"/>
  <ellipse class="cls-1" cx="215.7" cy="145.28" rx="42.52" ry="38.53"/>
  <ellipse class="cls-1" cx="273.85" cy="146.62" rx="42.52" ry="38.53"/>
  <ellipse class="cls-1" cx="320.8" cy="163.97" rx="42.52" ry="38.53"/>
  <ellipse class="cls-1" cx="355.85" cy="188.15" rx="42.52" ry="38.53"/>
  <ellipse class="cls-1" cx="399.24" cy="234.58" rx="42.52" ry="38.53"/>
  <ellipse class="cls-1" cx="415.3" cy="198.9" rx="42.52" ry="38.53"/>
  <ellipse class="cls-1" cx="414.1" cy="225.47" rx="42.52" ry="38.53"/>
  <ellipse class="cls-1" cx="435.09" cy="202.83" rx="42.52" ry="38.53"/>
  <ellipse class="cls-1" cx="187.91" cy="128.46" rx="42.52" ry="38.53"/>
  <ellipse class="cls-1" cx="234.71" cy="109.51" rx="42.52" ry="38.53"/>
  <ellipse class="cls-1" cx="292.61" cy="104.95" rx="42.52" ry="38.53"/>
  <ellipse class="cls-1" cx="345.48" cy="124.49" rx="42.52" ry="38.53"/>
  <ellipse class="cls-1" cx="433.84" cy="175.35" rx="42.52" ry="38.53"/>
  <ellipse class="cls-1" cx="385.37" cy="146.21" rx="42.52" ry="38.53"/>
  <ellipse class="cls-1" cx="175.47" cy="150.28" rx="42.52" ry="38.53"/>
  <path class="cls-1" d="M225.94,114.32c-21.75-8.04-46.57,1.42-55.44,21.12-8.87,19.7,1.57,42.19,23.31,50.23,8.05,2.98,16.52,3.54,24.45,2.09,1-.32,2.03-.55,3.02-.74,.26-.05,.53-.09,.79-.13,3.56-.97,6.98-2.34,10.15-4.11,1.06-.74,2.15-1.44,3.29-2.04,5.91-4.04,10.73-9.52,13.73-16.18,8.87-19.7-1.57-42.19-23.31-50.23Z"/>
  <ellipse class="cls-1" cx="273.4" cy="147.62" rx="42.52" ry="38.53"/>
  <path class="cls-3" d="M429.42,226.86c-.96-21.26-20.77-37.79-44.24-36.91-22.2,.83-39.69,16.93-40.7,36.66,.65,.08,1.3,.16,1.95,.24,1.97,.25,4.1,.51,5.95,1.22,.13-.06,.26-.1,.39-.17,.52-.29,1.3-.32,1.68,.2,.03,.04,.06,.09,.09,.13,.21-.11,.43-.2,.74-.17,.94,.07,1.18,.89,.9,1.49,.83,.44,.64,1.45-.03,1.84,.42,1.04,.58,2.19,.43,3.27-.12,.87-.4,1.67-.77,2.43,.83,.4,.72,1.35,.14,1.79,0,.05-.01,.11-.01,.16,.93,.67,.15,2.22-1.11,1.85-.03,.04-.06,.06-.09,.1,.05,.6-.44,1.25-1.17,1.23-.14,.35-.45,.64-.86,.72-.13,.47-.56,.88-1.15,.87-.16,.42-.57,.76-1.1,.76-.33,.47-.8,.82-1.37,1.07-.04,.02-.08,.02-.12,.04,7.27,13.12,22.47,21.9,39.71,21.25,23.47-.87,41.71-18.82,40.74-40.08Z"/>
  <path class="cls-3" d="M382.28,184.71c-2.13-21.19-22.81-36.81-46.2-34.88-23.39,1.93-40.63,20.67-38.5,41.86,.25,2.48,.78,4.88,1.51,7.19,.15,.07,.3,.13,.44,.2,1.03,.45,2.08,.86,3.11,1.3,.29,.12,.59,.26,.88,.39,2.86,.02,5.27,1.62,7.95,2.28,.08-.02,.15-.06,.24-.06,.37-.03,.7,.08,.95,.28,.08,0,.16,.03,.24,.04,.65,.06,1.13,.63,1.05,1.21-.07,.52-.3,.95-.73,1.3-.3,.25-.69,.39-1.03,.59,0,0,0,0-.01,0,.06,.47-.21,.92-.7,1.13-.13,.06-.28,.08-.44,.08-.27,.73-.82,1.38-1.58,1.71-.38,.68-.93,1.31-1.61,1.86-.31,.41-.72,.75-1.22,.96,7.34,8.35,18.36,13.81,30.62,14.49,.02-.02,.04-.03,.06-.05-.26-.76,.51-1.77,1.57-1.38,.8,.3,1.59,.61,2.38,.93,.5,.1,1.01,.18,1.52,.25,.41,.06,.82,.1,1.23,.15,23.27-2.03,40.38-20.71,38.26-41.83Z"/>
  <path class="cls-3" d="M350.48,164.57c-.96-21.26-20.77-37.79-44.24-36.91-23.47,.87-41.71,18.82-40.74,40.08,.4,8.74,4,16.66,9.7,22.92-.05-.43,.17-.88,.57-1.12-.09-.41,.07-.85,.43-1.12-.05-.45,.21-.91,.65-1.11,.06-.58,.59-1.1,1.32-1.01,.24-.08,.52-.1,.83,.01,.03,.01,.04,.03,.07,.04,.27-.4,.78-.66,1.4-.43,.07,.03,.11,.07,.17,.1,.13-.04,.27-.06,.42-.05,.29-.31,.76-.49,1.31-.28,.01,0,.02,.01,.03,.02,.28-.17,.63-.24,1.03-.09,.13,.05,.24,.12,.33,.19,.11,.01,.21,.01,.33,.06,.37,.14,.58,.37,.67,.63,.44,.14,.78,.51,.71,1.09,0,0,0,.01,0,.02,.27,.19,.41,.45,.42,.73,.44,.18,.86,.44,1.21,.78,2.57,2.51,4.99,5.15,7.92,7.31,.39,.23,.74,.48,1.07,.75,.05,.03,.09,.06,.13,.09,.8,.53,1.65,1,2.5,1.46,.03,.01,.05,.02,.09,.04,.25,.11,.49,.22,.74,.33,1.03,.45,2.08,.86,3.11,1.3,.29,.12,.59,.26,.88,.39,2.86,.02,5.27,1.62,7.95,2.28,.08-.02,.15-.06,.24-.06,.37-.03,.7,.08,.95,.28,.08,0,.16,.03,.24,.04,.56,.05,.97,.49,1.03,.98,21.4-2.72,37.44-19.75,36.53-39.72Z"/>
  <path class="cls-2" d="M285.46,187.57s0,.01,0,.02c.17,.12,.3,.25,.36,.41,9.83-7.41,15.88-18.73,15.31-31.2-.96-21.26-20.77-37.79-44.24-36.91-23.47,.87-41.71,18.82-40.74,40.08,.45,9.95,5.05,18.85,12.2,25.43,.15-.09,.31-.17,.46-.27,2.72-1.77,5.44-4.07,8.62-5.24,.16-.43,.56-.77,1.1-.77,.01-.06,.01-.12,.04-.18,.13-.33,.45-.53,.81-.62-.01-.35,.12-.72,.44-.91,.57-.35,1.17-.65,1.83-.84-.06-.72,.65-1.51,1.61-1.15,.62,.23,.78,.73,.68,1.19,.01,0,.03,0,.04,.02,.01,0,.02,.02,.04,.02,.28-.17,.64-.24,1.05-.09,.73,.27,.85,.93,.6,1.43,.49,.13,.89,.51,.79,1.11-.4,2.51-2.15,4.4-3.21,6.67-1.05,2.25-1.16,4.76-2.36,6.96-.11,.2-.26,.33-.43,.43,6.03,2.61,12.81,3.99,19.95,3.73,4.84-.18,9.46-1.1,13.73-2.61-.12-.6,.33-1.29,1.05-1.34,.05-.57,.15-1.15,.3-1.72-.53-.5-.29-1.34,.3-1.68-.09-.41,.07-.85,.43-1.12-.05-.45,.21-.91,.65-1.11,.06-.58,.59-1.1,1.32-1.01,.24-.08,.52-.1,.83,.01,.03,.01,.04,.03,.07,.04,.27-.4,.78-.66,1.4-.43,.07,.03,.11,.07,.17,.1,.13-.04,.27-.06,.42-.05,.29-.31,.76-.49,1.31-.28,.01,0,.02,.01,.03,.02,.28-.17,.63-.24,1.03-.09,.13,.05,.24,.12,.33,.19,.11,.01,.21,.01,.33,.06,.37,.14,.58,.37,.67,.63,.44,.14,.78,.51,.71,1.09Z"/>
  <path class="cls-2" d="M289.29,155.2c-.96-21.26-20.77-37.79-44.24-36.91-23.47,.87-41.71,18.82-40.74,40.08,.53,11.76,6.85,22.05,16.35,28.77,.21-.04,.42-.09,.62-.12,1.17-.23,2.37-.38,3.58-.47,.41-.18,.83-.33,1.22-.45,.37-.11,.7-.07,.97,.05,.6-.31,1.19-.64,1.75-1.01,2.72-1.77,5.44-4.07,8.62-5.24,.16-.43,.56-.77,1.1-.77,.01-.06,.01-.12,.04-.18,.13-.33,.45-.53,.81-.62-.01-.35,.12-.72,.44-.91,.57-.35,1.17-.65,1.83-.84-.06-.72,.65-1.51,1.61-1.15,.62,.23,.78,.73,.68,1.19,.01,0,.03,0,.04,.02,.01,0,.02,.02,.04,.02,.28-.17,.64-.24,1.05-.09,.73,.27,.85,.93,.6,1.43,.49,.13,.89,.51,.79,1.11-.4,2.51-2.15,4.4-3.21,6.67-1.05,2.25-1.16,4.76-2.36,6.96-.12,.21-.28,.34-.46,.44-.12,.53-.25,1.06-.35,1.6,2.76,.42,5.59,.61,8.5,.51,23.47-.87,41.71-18.82,40.74-40.08Z"/>
  <path class="cls-3" d="M232.18,166.1c-.96-21.26-20.77-37.79-44.24-36.91-23.47,.87-41.71,18.82-40.74,40.08,.6,13.16,8.41,24.49,19.84,31.02,1.61-.02,3.19,.15,4.77,.45,.3-.28,.73-.42,1.24-.23,.13,.05,.21,.12,.31,.18,.65-.3,1.45-.37,2.33-.04,1.41,.52,1.9,1.61,1.77,2.67,.14,.2,.28,.41,.39,.62,.12,.25,.2,.52,.27,.78,0,0,0,.01,0,.02,4.22,1.08,8.69,1.6,13.31,1.43,4.61-.17,9.01-1.02,13.11-2.4-.07-.09-.14-.17-.18-.29-1.04-2.92-2.45-5.84-2.85-8.91-.31-.52-.61-1.05-.92-1.57-.06-.1-.07-.21-.08-.31-1-.58-.41-2.03,.71-1.97,.1-.58,.68-1.11,1.44-.91,.2-.15,.41-.29,.64-.39,.2-.54,.8-.97,1.55-.69,.15,.06,.26,.13,.36,.22,.2-.02,.4-.04,.6-.06,2.46-.18,4.94,.11,7.41,.18,.22-.52,.8-.92,1.54-.65,.17,.06,.3,.15,.41,.25,.09,0,.2,.03,.3,.05,.27-.41,.79-.68,1.42-.44,.01,0,.02,.01,.03,.02,1.37-.63,2.92-1.01,4.38-1.29,1.17-.23,2.37-.39,3.58-.47,.41-.18,.83-.33,1.22-.45,.34-.1,.64-.07,.89,.03,3.58-5.93,5.52-12.77,5.19-20.01Z"/>
  <path class="cls-1" d="M362.83,163.39c-.96-21.26-20.77-37.79-44.24-36.91-23.47,.87-41.71,18.82-40.74,40.08,.42,9.16,4.33,17.43,10.52,23.82,.26,.26,.51,.51,.77,.77,4.41,4.31,9.89,7.69,16.04,9.82,1.01,.2,1.97,.55,2.93,.92,4.41,1.2,9.11,1.77,13.97,1.59,23.47-.87,41.71-18.82,40.74-40.08Z"/>
  <path class="cls-1" d="M397.88,187.57c-.96-21.26-20.77-37.79-44.24-36.91-23.47,.87-41.71,18.82-40.74,40.08,.82,18.11,15.31,32.77,34.08,36.19,.87,.11,1.76,.23,2.63,.4,2.45,.3,4.96,.42,7.52,.33,23.47-.87,41.71-18.82,40.74-40.08Z"/>
  <path class="cls-1" d="M441.27,234.01c-.96-21.26-20.77-37.79-44.24-36.91-20.83,.78-37.53,15.01-40.34,33.07,.07,.26,.02,.53-.11,.78-.06,.44-.12,.88-.16,1.32,.2,.79,.26,1.61,.15,2.4-.06,.45-.17,.88-.3,1.29,0,.4,0,.81,.02,1.21,0,.14,.02,.27,.03,.41,.09,.2,.1,.42,.05,.63,1.56,20.75,21.08,36.73,44.16,35.87,23.47-.87,41.71-18.82,40.74-40.08Z"/>
  <ellipse class="cls-1" cx="414.85" cy="199.91" rx="42.52" ry="38.53"/>
  <ellipse class="cls-1" cx="413.64" cy="226.48" rx="42.52" ry="38.53"/>
  <ellipse class="cls-1" cx="434.63" cy="203.84" rx="42.52" ry="38.53"/>
  <ellipse class="cls-1" cx="187.46" cy="129.47" rx="42.52" ry="38.53"/>
  <path class="cls-1" d="M236.01,149.01c-23.47,.88-43.27-15.65-44.24-36.91-.96-21.26,17.27-39.2,40.74-40.08,23.47-.86,43.28,15.66,44.24,36.91,.97,21.27-17.28,39.21-40.74,40.08Z"/>
  <ellipse class="cls-1" cx="292.16" cy="105.95" rx="42.52" ry="38.53"/>
  <ellipse class="cls-1" cx="345.03" cy="125.49" rx="42.52" ry="38.53"/>
  <ellipse class="cls-1" cx="433.39" cy="176.36" rx="42.52" ry="38.53"/>
  <ellipse class="cls-1" cx="384.92" cy="147.22" rx="42.52" ry="38.53"/>
  <path class="cls-5" d="M187.43,117.82c-23.47,.88-43.27-15.65-44.24-36.91-.96-21.26,17.27-39.2,40.74-40.08,23.47-.86,43.28,15.66,44.24,36.91,.97,21.27-17.28,39.21-40.74,40.08Z"/>
  <path class="cls-5" d="M172.79,159.51c-23.47,.88-43.27-15.65-44.24-36.91-.96-21.26,17.27-39.2,40.74-40.08,23.47-.86,43.28,15.66,44.24,36.91,.97,21.27-17.28,39.21-40.74,40.08Z"/>
  <path class="cls-5" d="M168.11,179.56c-23.47,.88-43.27-15.65-44.24-36.91-.96-21.26,17.27-39.2,40.74-40.08,23.47-.86,43.28,15.66,44.24,36.91,.97,21.27-17.28,39.21-40.74,40.08Z"/>
  <path class="cls-5" d="M220.23,165.82c-23.47,.88-43.27-15.65-44.24-36.91-.96-21.26,17.27-39.2,40.74-40.08,23.47-.86,43.28,15.66,44.24,36.91,.97,21.27-17.28,39.21-40.74,40.08Z"/>
  <path class="cls-5" d="M219.26,101.2c-23.47,.88-43.27-15.65-44.24-36.91-.96-21.26,17.27-39.2,40.74-40.08,23.47-.86,43.28,15.66,44.24,36.91,.97,21.27-17.28,39.21-40.74,40.08Z"/>
  <path class="cls-5" d="M282.26,111.25c-23.47,.88-43.27-15.65-44.24-36.91-.96-21.26,17.27-39.2,40.74-40.08,23.47-.86,43.28,15.66,44.24,36.91,.97,21.27-17.28,39.21-40.74,40.08Z"/>
  <path class="cls-5" d="M250.15,99.38c-23.47,.88-43.27-15.65-44.24-36.91-.96-21.26,17.27-39.2,40.74-40.08,23.47-.86,43.28,15.66,44.24,36.91,.97,21.27-17.28,39.21-40.74,40.08Z"/>
  <path class="cls-5" d="M309.24,88.38c-23.47,.88-43.27-15.65-44.24-36.91-.96-21.26,17.27-39.2,40.74-40.08,23.47-.86,43.28,15.66,44.24,36.91,.97,21.27-17.28,39.21-40.74,40.08Z"/>
  <path class="cls-5" d="M320.62,160.13c-23.47,.88-43.27-15.65-44.24-36.91-.96-21.26,17.27-39.2,40.74-40.08,23.47-.86,43.28,15.66,44.24,36.91,.97,21.27-17.28,39.21-40.74,40.08Z"/>
  <path class="cls-5" d="M378.32,174.47c-23.47,.88-43.27-15.65-44.24-36.91-.96-21.26,17.27-39.2,40.74-40.08,23.47-.86,43.28,15.66,44.24,36.91,.97,21.27-17.28,39.21-40.74,40.08Z"/>
  <path class="cls-5" d="M413.48,211.85c-23.47,.88-43.27-15.65-44.24-36.91-.96-21.26,17.27-39.2,40.74-40.08,23.47-.86,43.28,15.66,44.24,36.91,.97,21.27-17.28,39.21-40.74,40.08Z"/>
  <path class="cls-5" d="M470.4,227.89c-23.47,.88-43.27-15.65-44.24-36.91-.96-21.26,17.27-39.2,40.74-40.08,23.47-.86,43.28,15.66,44.24,36.91,.97,21.27-17.28,39.21-40.74,40.08Z"/>
  <path class="cls-5" d="M443.57,257.76c-23.47,.88-43.27-15.65-44.24-36.91-.96-21.26,17.27-39.2,40.74-40.08,23.47-.86,43.28,15.66,44.24,36.91,.97,21.27-17.28,39.21-40.74,40.08Z"/>
  <path class="cls-5" d="M392.14,221.93c-23.47,.88-43.27-15.65-44.24-36.91-.96-21.26,17.27-39.2,40.74-40.08,23.47-.86,43.28,15.66,44.24,36.91,.97,21.27-17.28,39.21-40.74,40.08Z"/>
  <path class="cls-5" d="M344.93,184.82c-23.47,.88-43.27-15.65-44.24-36.91-.96-21.26,17.27-39.2,40.74-40.08,23.47-.86,43.28,15.66,44.24,36.91,.97,21.27-17.28,39.21-40.74,40.08Z"/>
  <path class="cls-5" d="M434.37,170.83c-23.48-.33-42.22-17.85-41.86-39.13,.37-21.27,19.7-38.25,43.18-37.92,23.49,.34,42.23,17.86,41.86,39.13-.37,21.29-19.71,38.26-43.18,37.92Z"/>
  <path class="cls-5" d="M338.48,140.81c-23.47,.88-43.27-15.65-44.24-36.91-.96-21.26,17.27-39.2,40.74-40.08,23.47-.86,43.28,15.66,44.24,36.91,.97,21.27-17.28,39.21-40.74,40.08Z"/>
  <path class="cls-5" d="M414.72,131.83c-23.47,.88-43.27-15.65-44.24-36.91-.96-21.26,17.27-39.2,40.74-40.08,23.47-.86,43.28,15.66,44.24,36.91,.97,21.27-17.28,39.21-40.74,40.08Z"/>
  <path class="cls-5" d="M368.07,101.34c-23.47,.88-43.27-15.65-44.24-36.91-.96-21.26,17.27-39.2,40.74-40.08,23.47-.86,43.28,15.66,44.24,36.91,.97,21.27-17.28,39.21-40.74,40.08Z"/>
  <path class="cls-5" d="M471.22,197.91c-23.47,.88-43.27-15.65-44.24-36.91-.96-21.26,17.27-39.2,40.74-40.08,23.47-.86,43.28,15.66,44.24,36.91,.97,21.27-17.28,39.21-40.74,40.08Z"/>
  <path class="cls-5" d="M327.36,127.91c-23.47,.88-43.27-15.65-44.24-36.91-.96-21.26,17.27-39.2,40.74-40.08,23.47-.86,43.28,15.66,44.24,36.91,.97,21.27-17.28,39.21-40.74,40.08Z"/>
  <path class="cls-5" d="M278.39,156.92c-23.47,.88-43.27-15.65-44.24-36.91-.96-21.26,17.27-39.2,40.74-40.08,23.47-.86,43.28,15.66,44.24,36.91,.97,21.27-17.28,39.21-40.74,40.08Z"/>
  <path class="cls-4" d="M510.14,387.31h0s0,0,0-.04c-.11-1.03-.24-2.05-.38-3.07-.4-3.15-1.19-9.5-2.8-22.3h-2.94c-16.86-44.5-63.45-76.49-118.29-76.49-63.01,0-115.13,42.23-123.77,97.16h-9.33c-32.51,0-59.65,21.86-64.41,50.15h-3.23c1.15,9.74,1.95,16.5,2.51,21.21,.07,3.66,.49,7.24,1.27,10.71,0,.03,0,.03,0,.03h0c6.04,26.91,32.44,47.33,63.86,47.33h122.87c1.4,0,2.79-.05,4.17-.13,2.01,.09,4.03,.13,6.07,.13,69.06,0,125.04-50.72,125.04-113.29,0-3.85-.21-7.65-.63-11.4Z"/>
  <path class="cls-8" d="M384.54,265.19c-63.59-.59-116.37,41.85-125.07,97.16h-9.33c-35.84,0-65.16,26.57-65.16,59.04v11.35c0,32.47,29.32,59.04,65.16,59.04h122.87c1.4,0,2.79-.05,4.17-.13,2.01,.09,4.03,.13,6.07,.13,70.68,0,127.66-53.13,124.95-117.71-2.52-60.09-57.28-108.26-123.65-108.87Z"/>
  <path class="cls-9" d="M384.99,281.64c-52.07,0-95.38,34.99-104.4,81.14-1.42,7.26-8.44,12.51-16.57,12.51h-10.18c-28.89,0-52.32,21.22-52.32,47.4v9.58c0,26.18,23.42,47.4,52.32,47.4h131.11s.01,0,.02,0c.01,0,.02,0,.03,0,58.61,0,106.13-44.33,106.13-99.02s-47.51-99.02-106.13-99.02Z"/>
  <path class="cls-8" d="M496.64,355.72l-.05-.16c-1.16-4.03-6.82-12.29-10.08-5.33l-140.06,34.64c-3.5,.86-29.61,7.04-34.06,2.89-3.06-2.86-9.54-9.3-10.19-10.2,0,0-5.15-4.43-25.84-19.87-3.55-2.65-8.8-2.12-11.64,1.17l-.06,.07c-2.76,3.21-2.21,7.85,1.24,10.43,12.57,9.4,24.99,18.97,29.63,22.97,.94,.81,1.76,1.71,2.45,2.7,12.54,18.01,18.16,38.25,16.71,60.21-.64,9.66-2.59,17.63-4.17,22.75-1.12,3.63,.85,7.46,4.65,8.95h0c4.53,1.78,9.77-.47,11.12-4.8,4.03-12.9,9.54-39.74-1.16-69.54-1.21-3.36,.86-6.97,4.55-7.88l161.16-39.86c4.35-1.08,6.94-5.16,5.79-9.14Z"/>
  <ellipse class="cls-8" cx="258.63" cy="423.36" rx="22.37" ry="20.27"/>
  <polygon class="cls-11" points="124.1 144.48 107.33 60.51 123.84 54.85 131.33 139.89 186.58 41.56 204.37 63.42 143.03 143.17 124.1 144.48"/>
  <polygon class="cls-6" points="123.52 131.79 132.41 14.68 148.4 13.27 132.8 130.81 150.83 46.98 172.74 51.64 140.94 133.09 213.83 0 230.55 12.75 148.49 135.2 223.62 59.26 238.91 73.82 157.95 137.84 149.13 151.48 124.1 144.48 123.52 131.79"/>
  <path class="cls-10" d="M195.86,228.12c-3.01,8.83-11.11,27.92-22.4,52.2-2.6,5.59-5.37,11.44-8.28,17.51-8.68,18.13-18.65,38.15-29.3,58.42-3.02,5.74-6.09,11.51-9.2,17.25-14.61,27-30.08,53.64-45,76.05-3.88,5.84-7.72,11.4-11.51,16.59-20.49,28.2-39.07,45.97-51.64,42.45-20.71-5.79-21.41-68.4-14.87-137.58,.61-6.38,1.27-12.81,1.97-19.26,1.61-14.48,3.48-29.04,5.49-43.25,.91-6.43,1.85-12.79,2.82-19.04,4.38-28.47,9.16-54.53,13.35-74.26,1.5-7.09,2.93-13.37,4.25-18.64,1.4-5.71,2.67-10.24,3.74-13.38,13.69-40.18,60.73-62.68,105.08-50.28,31.19,8.72,52.74,32.4,58.01,59.66,1.26,6.53,1.59,13.29,.89,20.08-.53,5.14-1.65,10.32-3.4,15.46Z"/>
  <path class="cls-7" d="M35.88,370.13c-.85,2.49-2.75,4.44-5.11,5.57-2.38,1.14-5.22,1.45-7.97,.68l-19.14-5.35c.61-6.38,1.27-12.81,1.97-19.26l23.33,6.53c5.49,1.54,8.61,6.86,6.91,11.84Z"/>
  <path class="cls-7" d="M86.4,221.84c-.84,2.48-3.34,4.26-6.7,5.12-3.36,.85-7.56,.8-11.8-.39l-39.56-11.06c1.05-7.22,2.13-13.59,3.21-18.93l42.52,11.89c8.48,2.37,14.04,8.39,12.34,13.37Z"/>
  <path class="cls-7" d="M81.68,449.56c-3.88,5.84-7.72,11.4-11.51,16.59l-23.96-6.7c-5.49-1.54-8.6-6.86-6.9-11.84,.85-2.49,2.74-4.44,5.11-5.57,2.36-1.14,5.21-1.46,7.95-.69l29.3,8.19Z"/>
  <path class="cls-7" d="M199.26,212.66l-35.28-9.87c-5.49-1.54-8.6-6.86-6.9-11.84,.85-2.49,2.74-4.44,5.11-5.58,2.36-1.14,5.21-1.46,7.95-.69l28.22,7.89c1.26,6.53,1.59,13.29,.89,20.08Z"/>
  <path class="cls-7" d="M173.46,280.32c-2.6,5.59-5.37,11.44-8.28,17.51l-30.66-8.57c-5.49-1.54-8.6-6.86-6.9-11.84,.85-2.49,2.74-4.44,5.11-5.58,2.36-1.14,5.21-1.46,7.95-.69l32.77,9.17Z"/>
  <path class="cls-7" d="M73.85,316.14c-.85,2.49-2.74,4.44-5.11,5.58-2.36,1.14-5.21,1.46-7.95,.69l-49.66-13.89c.91-6.43,1.85-12.79,2.82-19.04l53.01,14.83c5.49,1.54,8.59,6.87,6.9,11.84Z"/>
  <path class="cls-7" d="M135.88,356.25c-3.02,5.74-6.09,11.51-9.2,17.25l-8.45-2.36c-5.48-1.53-8.59-6.87-6.9-11.85,.84-2.48,2.75-4.43,5.11-5.57,2.37-1.13,5.22-1.45,7.95-.69l11.49,3.21Z"/>
  <path class="cls-7" d="M143.8,252.21l-13.87-3.88c-5.49-1.54-8.6-6.86-6.9-11.84h0c1.7-4.98,7.58-7.79,13.07-6.25l13.87,3.88c5.49,1.54,8.6,6.86,6.9,11.84h0c-1.7,4.98-7.58,7.79-13.07,6.25Z"/>
</svg>