<?xml version="1.0" encoding="UTF-8"?>
<svg id="Lag_1" data-name="Lag 1" xmlns="http://www.w3.org/2000/svg" viewBox="0 0 16 16">
  <defs>
    <style>
      .cls-1, .cls-2, .cls-3 {
        fill: #248841;
      }

      .cls-4 {
        fill: #e2a492;
      }

      .cls-5 {
        fill: #099046;
      }

      .cls-6 {
        fill: #98bb1f;
      }

      .cls-7 {
        fill: #dc800c;
      }

      .cls-2 {
        opacity: .05;
      }

      .cls-2, .cls-3 {
        isolation: isolate;
      }

      .cls-8 {
        fill: #fae5d3;
      }

      .cls-9 {
        fill: #e73645;
      }

      .cls-10 {
        fill: #f7a414;
      }

      .cls-3 {
        opacity: .1;
      }

      .cls-11 {
        fill: #708d2b;
      }

      .cls-12 {
        fill: #a5c83d;
      }
    </style>
  </defs>
  <path class="cls-12" d="M12.03,7.79l-.61-.48-.4,.29s0,0-.02,.01h-.02s0,.02-.01,.02l-1.65,1.2c-.06-.48,2.55-3.3,2.55-3.3l-.69-.6-2.48,2.67-.5,.5c-.41-.66,.93-3.37,.93-3.37l-.72-.27c-.2,.08-.46,.55-.7,1.12,0,.04-.03,.08-.05,.11-.03,.08-.06,.15-.09,.23,0,.03-.02,.05-.03,.08h0s-.02,.04-.02,.06c0,0,0,0,0,.01,0,0,0,.01,0,.02-.33,.85-.59,1.71-.59,1.71l-.95-2.66-.88,.11c.98,.55,.74,6.47,.84,6.77s1.77,.65,1.77,.65c-.22-.5,4.35-4.92,4.35-4.92h0Z"/>
  <ellipse class="cls-1" cx="6.6" cy="4.19" rx="1.33" ry="1.2"/>
  <ellipse class="cls-1" cx="8.54" cy="4.61" rx="1.33" ry="1.2"/>
  <path class="cls-1" d="M11.34,5.11c-.03-.66-.65-1.18-1.38-1.15s-1.3,.59-1.27,1.25c.01,.29,.13,.54,.33,.74l.02,.02c.14,.13,.31,.24,.5,.31,.03,0,.06,.02,.09,.03,.14,.04,.28,.05,.44,.05,.73-.03,1.3-.59,1.27-1.25Z"/>
  <path class="cls-1" d="M12.43,5.86c-.03-.66-.65-1.18-1.38-1.15-.73,.03-1.3,.59-1.27,1.25,.03,.57,.48,1.02,1.06,1.13,.03,0,.05,0,.08,.01,.08,0,.15,.01,.23,0,.73-.03,1.3-.59,1.27-1.25h0Z"/>
  <path class="cls-1" d="M13.79,7.31c-.03-.66-.65-1.18-1.38-1.15-.65,.02-1.17,.47-1.26,1.03,0,0,0,.02,0,.02,0,.01,0,.03,0,.04,0,.02,0,.05,0,.07,0,.01,0,.03,0,.04v.04s0,0,0,.01c0,0,0,.01,0,.02,.05,.65,.66,1.15,1.38,1.12,.73-.03,1.3-.59,1.27-1.25Z"/>
  <ellipse class="cls-1" cx="12.96" cy="6.25" rx="1.33" ry="1.2"/>
  <ellipse class="cls-1" cx="12.93" cy="7.08" rx="1.33" ry="1.2"/>
  <ellipse class="cls-1" cx="13.58" cy="6.37" rx="1.33" ry="1.2"/>
  <ellipse class="cls-1" cx="5.86" cy="4.05" rx="1.33" ry="1.2"/>
  <ellipse class="cls-1" cx="7.32" cy="3.45" rx="1.33" ry="1.2"/>
  <ellipse class="cls-1" cx="9.13" cy="3.31" rx="1.33" ry="1.2"/>
  <ellipse class="cls-1" cx="10.78" cy="3.92" rx="1.33" ry="1.2"/>
  <ellipse class="cls-1" cx="13.54" cy="5.51" rx="1.33" ry="1.2"/>
  <ellipse class="cls-1" cx="12.03" cy="4.6" rx="1.33" ry="1.2"/>
  <path class="cls-1" d="M6.31,5.93c.14-.12,.25-.26,.33-.43,.28-.62-.05-1.32-.73-1.57s-1.45,.04-1.73,.66,.05,1.32,.73,1.57c.49,.18,1.02,.08,1.39-.22,0,0,0,0,0,0h0Z"/>
  <ellipse class="cls-1" cx="6.74" cy="4.54" rx="1.33" ry="1.2"/>
  <ellipse class="cls-1" cx="8.56" cy="4.58" rx="1.33" ry="1.2"/>
  <ellipse class="cls-1" cx="10.03" cy="5.12" rx="1.33" ry="1.2"/>
  <ellipse class="cls-1" cx="11.12" cy="5.88" rx="1.33" ry="1.2"/>
  <ellipse class="cls-1" cx="12.48" cy="7.33" rx="1.33" ry="1.2"/>
  <ellipse class="cls-1" cx="12.98" cy="6.22" rx="1.33" ry="1.2"/>
  <ellipse class="cls-1" cx="12.94" cy="7.05" rx="1.33" ry="1.2"/>
  <ellipse class="cls-1" cx="13.6" cy="6.34" rx="1.33" ry="1.2"/>
  <ellipse class="cls-1" cx="5.87" cy="4.01" rx="1.33" ry="1.2"/>
  <ellipse class="cls-1" cx="7.34" cy="3.42" rx="1.33" ry="1.2"/>
  <ellipse class="cls-1" cx="9.14" cy="3.28" rx="1.33" ry="1.2"/>
  <ellipse class="cls-1" cx="10.8" cy="3.89" rx="1.33" ry="1.2"/>
  <ellipse class="cls-1" cx="13.56" cy="5.48" rx="1.33" ry="1.2"/>
  <ellipse class="cls-1" cx="12.04" cy="4.57" rx="1.33" ry="1.2"/>
  <ellipse class="cls-1" cx="5.48" cy="4.7" rx="1.33" ry="1.2"/>
  <path class="cls-1" d="M7.06,3.57c-.68-.25-1.45,.04-1.73,.66s.05,1.32,.73,1.57c.25,.09,.52,.11,.76,.06,.03,0,.06-.02,.09-.02,0,0,.02,0,.02,0,.11-.03,.22-.07,.32-.13,.03-.02,.07-.04,.1-.06,.18-.13,.34-.3,.43-.51,.28-.62-.05-1.32-.73-1.57h0Z"/>
  <ellipse class="cls-1" cx="8.54" cy="4.61" rx="1.33" ry="1.2"/>
  <path class="cls-3" d="M13.42,7.09c-.03-.66-.65-1.18-1.38-1.15-.69,.03-1.24,.53-1.27,1.15,.02,0,.04,0,.06,0,.06,0,.13,.02,.19,.04,0,0,0,0,.01,0,.02,0,.04,0,.05,0,0,0,0,0,0,0,0,0,.01,0,.02,0,.03,0,.04,.03,.03,.05,.03,.01,.02,.04,0,.06,.01,.03,.02,.07,.01,.1,0,.03-.01,.05-.02,.08,.03,.01,.02,.04,0,.06h0s0,.07-.03,.06c0,0,0,0,0,0,0,.02-.01,.04-.04,.04,0,.01-.01,.02-.03,.02,0,.01-.02,.03-.04,.03,0,.01-.02,.02-.03,.02,0,.01-.02,.03-.04,.03,0,0,0,0,0,0,.23,.41,.7,.68,1.24,.66,.73-.03,1.3-.59,1.27-1.25h0Z"/>
  <path class="cls-3" d="M11.95,5.77c-.07-.66-.71-1.15-1.44-1.09-.73,.06-1.27,.65-1.2,1.31,0,.08,.02,.15,.05,.22,0,0,0,0,.01,0,.03,.01,.06,.03,.1,.04,0,0,.02,0,.03,.01,.09,0,.16,.05,.25,.07,0,0,0,0,0,0,.01,0,.02,0,.03,0,0,0,0,0,0,0,.02,0,.03,.02,.03,.04,0,.02,0,.03-.02,.04,0,0-.02,.01-.03,.02h0s0,.03-.02,.04c0,0,0,0-.01,0,0,.02-.03,.04-.05,.05-.01,.02-.03,.04-.05,.06,0,.01-.02,.02-.04,.03,.23,.26,.57,.43,.96,.45h0s.02-.06,.05-.04c.02,0,.05,.02,.07,.03,.02,0,.03,0,.05,0,.01,0,.03,0,.04,0,.73-.06,1.26-.65,1.2-1.31h0Z"/>
  <path class="cls-3" d="M10.95,5.14c-.03-.66-.65-1.18-1.38-1.15-.73,.03-1.3,.59-1.27,1.25,.01,.27,.12,.52,.3,.72,0-.01,0-.03,.02-.03,0-.01,0-.03,.01-.03,0-.01,0-.03,.02-.03,0-.02,.02-.03,.04-.03,0,0,.02,0,.03,0,0,0,0,0,0,0,0-.01,.02-.02,.04-.01,0,0,0,0,0,0,0,0,0,0,.01,0,0,0,.02-.01,.04,0h0s.02,0,.03,0c0,0,0,0,0,0,0,0,0,0,0,0,.01,0,.02,.01,.02,.02,.01,0,.02,.02,.02,.03h0s.01,.01,.01,.02c.01,0,.03,.01,.04,.02,.08,.08,.16,.16,.25,.23,.01,0,.02,.01,.03,.02,0,0,0,0,0,0,.02,.02,.05,.03,.08,.05,0,0,0,0,0,0,0,0,.01,0,.02,0,.03,.01,.06,.03,.1,.04,0,0,.02,0,.03,.01,.09,0,.16,.05,.25,.07,0,0,0,0,0,0,.01,0,.02,0,.03,0,0,0,0,0,0,0,.02,0,.03,.01,.03,.03,.67-.08,1.17-.62,1.14-1.24h0Z"/>
  <path class="cls-2" d="M8.92,5.86h0s0,0,.01,.01c.31-.23,.5-.58,.48-.97-.03-.66-.65-1.18-1.38-1.15s-1.3,.59-1.27,1.25c.01,.31,.16,.59,.38,.79,0,0,0,0,.01,0,.08-.05,.17-.13,.27-.16,0-.01,.02-.02,.03-.02,0,0,0,0,0,0,0,0,.01-.02,.02-.02,0-.01,0-.02,.01-.03,.02-.01,.04-.02,.06-.03,0-.02,.02-.05,.05-.04,.02,0,.02,.02,.02,.04h0s.02,0,.03,0c.02,0,.03,.03,.02,.04,.02,0,.03,.02,.02,.03-.01,.08-.07,.14-.1,.21-.03,.07-.04,.15-.07,.22,0,0,0,0-.01,.01,.19,.08,.4,.12,.62,.12,.15,0,.3-.03,.43-.08,0-.02,0-.04,.03-.04,0-.02,0-.04,0-.05-.02-.02,0-.04,0-.05,0-.01,0-.03,.01-.03,0-.01,0-.03,.02-.03,0-.02,.02-.03,.04-.03,0,0,.02,0,.03,0,0,0,0,0,0,0,0-.01,.02-.02,.04-.01,0,0,0,0,0,0,0,0,0,0,.01,0,0,0,.02-.01,.04,0h0s.02,0,.03,0c0,0,0,0,0,0,0,0,0,0,0,0,.01,0,.02,.01,.02,.02,.01,0,.02,.02,.02,.03h0Z"/>
  <path class="cls-2" d="M9.04,4.85c-.03-.66-.65-1.18-1.38-1.15s-1.3,.59-1.27,1.25c.02,.37,.21,.69,.51,.9,0,0,.01,0,.02,0,.04,0,.07-.01,.11-.01,.01,0,.03,0,.04-.01,.01,0,.02,0,.03,0,.02,0,.04-.02,.05-.03,.08-.05,.17-.13,.27-.16,0-.01,.02-.02,.03-.02,0,0,0,0,0,0,0,0,.01-.02,.02-.02,0-.01,0-.02,.01-.03,.02-.01,.04-.02,.06-.03,0-.02,.02-.05,.05-.04,.02,0,.02,.02,.02,.04h0s.02,0,.03,0c.02,0,.03,.03,.02,.04,.02,0,.03,.02,.02,.03-.01,.08-.07,.14-.1,.21-.03,.07-.04,.15-.07,.22,0,0,0,.01-.01,.01,0,.02,0,.03-.01,.05,.09,.01,.17,.02,.27,.02,.73-.03,1.3-.59,1.27-1.25h0Z"/>
  <path class="cls-3" d="M7.26,5.19c-.03-.66-.65-1.18-1.38-1.15-.73,.03-1.3,.59-1.27,1.25,.02,.41,.26,.76,.62,.97,.05,0,.1,0,.15,.01,0,0,.02-.01,.04,0,0,0,0,0,0,0,.02,0,.04-.01,.07,0,.04,.02,.06,.05,.05,.08,0,0,0,.01,.01,.02,0,0,0,.02,0,.02h0c.13,.03,.27,.05,.42,.04,.14,0,.28-.03,.41-.07,0,0,0,0,0,0-.03-.09-.08-.18-.09-.28,0-.02-.02-.03-.03-.05,0,0,0,0,0,0-.03-.02-.01-.06,.02-.06,0-.02,.02-.03,.04-.03,0,0,.01,0,.02-.01,0-.02,.02-.03,.05-.02,0,0,0,0,.01,0,0,0,.01,0,.02,0,.08,0,.15,0,.23,0,0-.02,.02-.03,.05-.02,0,0,0,0,.01,0,0,0,0,0,0,0,0-.01,.02-.02,.04-.01h0s.09-.03,.14-.04c.04,0,.07-.01,.11-.01,.01,0,.03,0,.04-.01,.01,0,.02,0,.03,0,.11-.18,.17-.4,.16-.63h0Z"/>
  <path class="cls-1" d="M11.34,5.11c-.03-.66-.65-1.18-1.38-1.15s-1.3,.59-1.27,1.25c.01,.29,.13,.54,.33,.74l.02,.02c.14,.13,.31,.24,.5,.31,.03,0,.06,.02,.09,.03,.14,.04,.28,.05,.44,.05,.73-.03,1.3-.59,1.27-1.25Z"/>
  <path class="cls-1" d="M12.43,5.86c-.03-.66-.65-1.18-1.38-1.15-.73,.03-1.3,.59-1.27,1.25,.03,.57,.48,1.02,1.06,1.13,.03,0,.05,0,.08,.01,.08,0,.15,.01,.23,0,.73-.03,1.3-.59,1.27-1.25h0Z"/>
  <path class="cls-1" d="M13.79,7.31c-.03-.66-.65-1.18-1.38-1.15-.65,.02-1.17,.47-1.26,1.03,0,0,0,.02,0,.02,0,.01,0,.03,0,.04,0,.02,0,.05,0,.07,0,.01,0,.03,0,.04v.04s0,0,0,.01c0,0,0,.01,0,.02,.05,.65,.66,1.15,1.38,1.12,.73-.03,1.3-.59,1.27-1.25Z"/>
  <ellipse class="cls-1" cx="12.96" cy="6.25" rx="1.33" ry="1.2"/>
  <ellipse class="cls-1" cx="12.93" cy="7.08" rx="1.33" ry="1.2"/>
  <ellipse class="cls-1" cx="13.58" cy="6.37" rx="1.33" ry="1.2"/>
  <ellipse class="cls-1" cx="5.86" cy="4.05" rx="1.33" ry="1.2"/>
  <path class="cls-1" d="M7.38,4.66c-.73,.03-1.35-.49-1.38-1.15s.54-1.22,1.27-1.25c.73-.03,1.35,.49,1.38,1.15,.03,.66-.54,1.22-1.27,1.25Z"/>
  <ellipse class="cls-1" cx="9.13" cy="3.31" rx="1.33" ry="1.2"/>
  <ellipse class="cls-1" cx="10.78" cy="3.92" rx="1.33" ry="1.2"/>
  <ellipse class="cls-1" cx="13.54" cy="5.51" rx="1.33" ry="1.2"/>
  <ellipse class="cls-1" cx="12.03" cy="4.6" rx="1.33" ry="1.2"/>
  <path class="cls-5" d="M5.86,3.68c-.73,.03-1.35-.49-1.38-1.15-.03-.66,.54-1.22,1.27-1.25,.73-.03,1.35,.49,1.38,1.15,.03,.66-.54,1.22-1.27,1.25Z"/>
  <path class="cls-5" d="M5.4,4.98c-.73,.03-1.35-.49-1.38-1.15s.54-1.22,1.27-1.25c.73-.03,1.35,.49,1.38,1.15,.03,.66-.54,1.22-1.27,1.25Z"/>
  <path class="cls-5" d="M5.25,5.61c-.73,.03-1.35-.49-1.38-1.15s.54-1.22,1.27-1.25c.73-.03,1.35,.49,1.38,1.15,.03,.66-.54,1.22-1.27,1.25Z"/>
  <path class="cls-5" d="M6.88,5.18c-.73,.03-1.35-.49-1.38-1.15s.54-1.22,1.27-1.25c.73-.03,1.35,.49,1.38,1.15,.03,.66-.54,1.22-1.27,1.25Z"/>
  <path class="cls-5" d="M6.85,3.16c-.73,.03-1.35-.49-1.38-1.15-.03-.66,.54-1.22,1.27-1.25,.73-.03,1.35,.49,1.38,1.15,.03,.66-.54,1.22-1.27,1.25Z"/>
  <path class="cls-5" d="M8.82,3.48c-.73,.03-1.35-.49-1.38-1.15-.03-.66,.54-1.22,1.27-1.25,.73-.03,1.35,.49,1.38,1.15,.03,.66-.54,1.22-1.27,1.25Z"/>
  <path class="cls-5" d="M7.82,3.11c-.73,.03-1.35-.49-1.38-1.15-.03-.66,.54-1.22,1.27-1.25,.73-.03,1.35,.49,1.38,1.15,.03,.66-.54,1.22-1.27,1.25Z"/>
  <path class="cls-5" d="M9.66,2.76c-.73,.03-1.35-.49-1.38-1.15-.03-.66,.54-1.22,1.27-1.25,.73-.03,1.35,.49,1.38,1.15,.03,.66-.54,1.22-1.27,1.25Z"/>
  <path class="cls-5" d="M10.02,5c-.73,.03-1.35-.49-1.38-1.15s.54-1.22,1.27-1.25c.73-.03,1.35,.49,1.38,1.15,.03,.66-.54,1.22-1.27,1.25Z"/>
  <path class="cls-5" d="M11.82,5.45c-.73,.03-1.35-.49-1.38-1.15s.54-1.22,1.27-1.25c.73-.03,1.35,.49,1.38,1.15,.03,.66-.54,1.22-1.27,1.25Z"/>
  <path class="cls-5" d="M12.92,6.62c-.73,.03-1.35-.49-1.38-1.15-.03-.66,.54-1.22,1.27-1.25,.73-.03,1.35,.49,1.38,1.15,.03,.66-.54,1.22-1.27,1.25Z"/>
  <path class="cls-5" d="M14.7,7.12c-.73,.03-1.35-.49-1.38-1.15s.54-1.22,1.27-1.25c.73-.03,1.35,.49,1.38,1.15,.03,.66-.54,1.22-1.27,1.25Z"/>
  <path class="cls-5" d="M13.86,8.05c-.73,.03-1.35-.49-1.38-1.15-.03-.66,.54-1.22,1.27-1.25,.73-.03,1.35,.49,1.38,1.15,.03,.66-.54,1.22-1.27,1.25Z"/>
  <path class="cls-5" d="M12.25,6.93c-.73,.03-1.35-.49-1.38-1.15-.03-.66,.54-1.22,1.27-1.25,.73-.03,1.35,.49,1.38,1.15,.03,.66-.54,1.22-1.27,1.25Z"/>
  <path class="cls-5" d="M10.78,5.78c-.73,.03-1.35-.49-1.38-1.15s.54-1.22,1.27-1.25c.73-.03,1.35,.49,1.38,1.15,.03,.66-.54,1.22-1.27,1.25Z"/>
  <path class="cls-5" d="M13.57,5.34c-.73,0-1.32-.56-1.31-1.22,.01-.66,.62-1.19,1.35-1.18,.73,.01,1.32,.56,1.31,1.22-.01,.66-.62,1.2-1.35,1.18Z"/>
  <path class="cls-5" d="M10.58,4.4c-.73,.03-1.35-.49-1.38-1.15-.03-.66,.54-1.22,1.27-1.25,.73-.03,1.35,.49,1.38,1.15,.03,.66-.54,1.22-1.27,1.25Z"/>
  <path class="cls-5" d="M12.96,4.12c-.73,.03-1.35-.49-1.38-1.15-.03-.66,.54-1.22,1.27-1.25,.73-.03,1.35,.49,1.38,1.15,.03,.66-.54,1.22-1.27,1.25Z"/>
  <path class="cls-5" d="M11.5,3.17c-.73,.03-1.35-.49-1.38-1.15-.03-.66,.54-1.22,1.27-1.25,.73-.03,1.35,.49,1.38,1.15,.03,.66-.54,1.22-1.27,1.25Z"/>
  <path class="cls-5" d="M14.73,6.18c-.73,.03-1.35-.49-1.38-1.15-.03-.66,.54-1.22,1.27-1.25,.73-.03,1.35,.49,1.38,1.15,.03,.66-.54,1.22-1.27,1.25Z"/>
  <path class="cls-5" d="M10.23,4c-.73,.03-1.35-.49-1.38-1.15-.03-.66,.54-1.22,1.27-1.25,.73-.03,1.35,.49,1.38,1.15,.03,.66-.54,1.22-1.27,1.25Z"/>
  <path class="cls-5" d="M8.7,4.9c-.73,.03-1.35-.49-1.38-1.15s.54-1.22,1.27-1.25c.73-.03,1.35,.49,1.38,1.15,.03,.66-.54,1.22-1.27,1.25Z"/>
  <path class="cls-4" d="M15.94,12.1h0s0-.06-.01-.1c-.01-.1-.04-.3-.09-.7h-.09c-.53-1.39-1.98-2.39-3.7-2.39-1.97,0-3.6,1.32-3.87,3.04h-.29c-1.02,0-1.86,.68-2.01,1.57h-.1c.04,.3,.06,.52,.08,.66,0,.11,.01,.23,.04,.33h0c.19,.84,1.01,1.48,2,1.48h3.84s.09,0,.13,0c.06,0,.13,0,.19,0,2.16,0,3.91-1.58,3.91-3.54,0-.12,0-.24-.02-.36h0Z"/>
  <path class="cls-8" d="M12.02,8.29c-1.99-.02-3.64,1.31-3.91,3.04h-.29c-1.12,0-2.04,.83-2.04,1.84v.35c0,1.01,.92,1.84,2.04,1.84h3.84s.09,0,.13,0c.06,0,.13,0,.19,0,2.21,0,3.99-1.66,3.9-3.68-.08-1.88-1.79-3.38-3.86-3.4h0Z"/>
  <path class="cls-9" d="M12.03,8.8c-1.63,0-2.98,1.09-3.26,2.54-.04,.23-.26,.39-.52,.39h-.32c-.9,0-1.63,.66-1.63,1.48v.3c0,.82,.73,1.48,1.63,1.48h4.1c1.83,0,3.32-1.38,3.32-3.09s-1.48-3.09-3.32-3.09h0Z"/>
  <path class="cls-8" d="M15.52,11.12h0c-.04-.13-.21-.39-.31-.17l-4.38,1.08c-.11,.03-.92,.22-1.06,.09-.1-.09-.3-.29-.32-.32,0,0-.16-.14-.81-.62-.11-.08-.27-.07-.36,.04h0c-.09,.1-.07,.25,.04,.33,.39,.29,.78,.59,.93,.72,.03,.02,.05,.05,.08,.08,.39,.56,.57,1.19,.52,1.88-.02,.3-.08,.55-.13,.71-.03,.11,.03,.23,.14,.28h0c.14,.06,.3-.01,.35-.15,.13-.4,.3-1.24-.04-2.17-.04-.1,.03-.22,.14-.25l5.04-1.25c.14-.03,.22-.16,.18-.29h0Z"/>
  <ellipse class="cls-8" cx="8.08" cy="13.23" rx=".7" ry=".63"/>
  <polygon class="cls-11" points="3.88 4.51 3.35 1.89 3.87 1.71 4.1 4.37 5.83 1.3 6.39 1.98 4.47 4.47 3.88 4.51"/>
  <polygon class="cls-6" points="3.86 4.12 4.14 .46 4.64 .41 4.15 4.09 4.71 1.47 5.4 1.61 4.4 4.16 6.68 0 7.21 .4 4.64 4.22 6.99 1.85 7.47 2.31 4.94 4.31 4.66 4.73 3.88 4.51 3.86 4.12"/>
  <path class="cls-10" d="M6.12,7.13c-.09,.28-.35,.87-.7,1.63-.08,.17-.17,.36-.26,.55-.27,.57-.58,1.19-.92,1.83-.09,.18-.19,.36-.29,.54-.46,.84-.94,1.68-1.41,2.38-.12,.18-.24,.36-.36,.52-.64,.88-1.22,1.44-1.61,1.33-.65-.18-.67-2.14-.46-4.3,.02-.2,.04-.4,.06-.6,.05-.45,.11-.91,.17-1.35,.03-.2,.06-.4,.09-.59,.14-.89,.29-1.7,.42-2.32,.05-.22,.09-.42,.13-.58,.04-.18,.08-.32,.12-.42,.43-1.26,1.9-1.96,3.28-1.57,.97,.27,1.65,1.01,1.81,1.86,.04,.2,.05,.41,.03,.63-.02,.16-.05,.32-.11,.48h0Z"/>
  <path class="cls-7" d="M1.12,11.57c-.03,.08-.09,.14-.16,.17s-.16,.04-.25,.02l-.6-.17c.02-.2,.04-.4,.06-.6l.73,.2c.17,.05,.27,.21,.22,.37h0Z"/>
  <path class="cls-7" d="M2.7,6.93c-.03,.08-.1,.13-.21,.16s-.24,.02-.37-.01l-1.24-.35c.03-.23,.07-.42,.1-.59l1.33,.37c.26,.07,.44,.26,.39,.42h0Z"/>
  <path class="cls-7" d="M2.55,14.05c-.12,.18-.24,.36-.36,.52l-.75-.21c-.17-.05-.27-.21-.22-.37,.03-.08,.09-.14,.16-.17,.07-.04,.16-.05,.25-.02l.92,.26h0Z"/>
  <path class="cls-7" d="M6.23,6.65l-1.1-.31c-.17-.05-.27-.21-.22-.37,.03-.08,.09-.14,.16-.17,.07-.04,.16-.05,.25-.02l.88,.25c.04,.2,.05,.41,.03,.63Z"/>
  <path class="cls-7" d="M5.42,8.76c-.08,.17-.17,.36-.26,.55l-.96-.27c-.17-.05-.27-.21-.22-.37,.03-.08,.09-.14,.16-.17,.07-.04,.16-.05,.25-.02l1.02,.29h0Z"/>
  <path class="cls-7" d="M2.31,9.88c-.03,.08-.09,.14-.16,.17-.07,.04-.16,.05-.25,.02l-1.55-.43c.03-.2,.06-.4,.09-.59l1.66,.46c.17,.05,.27,.21,.22,.37h0Z"/>
  <path class="cls-7" d="M4.25,11.13c-.09,.18-.19,.36-.29,.54l-.26-.07c-.17-.05-.27-.21-.22-.37,.03-.08,.09-.14,.16-.17,.07-.03,.16-.04,.25-.02l.36,.1h0Z"/>
  <path class="cls-7" d="M4.49,7.88l-.43-.12c-.17-.05-.27-.21-.22-.37h0c.05-.16,.24-.24,.41-.2l.43,.12c.17,.05,.27,.21,.22,.37h0c-.05,.16-.24,.24-.41,.2Z"/>
</svg>