<?xml version="1.0" encoding="UTF-8"?>
<svg id="Lag_1" data-name="Lag 1" xmlns="http://www.w3.org/2000/svg" viewBox="0 0 24 24">
  <defs>
    <style>
      .cls-1, .cls-2, .cls-3 {
        fill: #248841;
      }

      .cls-4 {
        fill: #e2a492;
      }

      .cls-5 {
        fill: #099046;
      }

      .cls-6 {
        fill: #98bb1f;
      }

      .cls-7 {
        fill: #dc800c;
      }

      .cls-2 {
        opacity: .05;
      }

      .cls-2, .cls-3 {
        isolation: isolate;
      }

      .cls-8 {
        fill: #fae5d3;
      }

      .cls-9 {
        fill: #e73645;
      }

      .cls-10 {
        fill: #f7a414;
      }

      .cls-3 {
        opacity: .1;
      }

      .cls-11 {
        fill: #708d2b;
      }

      .cls-12 {
        fill: #a5c83d;
      }
    </style>
  </defs>
  <path class="cls-12" d="M18.04,11.68l-.92-.71-.6,.44s-.01,.01-.03,.02l-.03,.02s-.01,0-.02,.01l-2.48,1.8c-.09-.72,3.83-4.95,3.83-4.95l-1.04-.9-3.72,4.01-.75,.75c-.61-1,1.4-5.05,1.4-5.05l-1.08-.4c-.3,.12-.69,.83-1.05,1.68-.01,.06-.04,.12-.07,.17-.05,.11-.09,.23-.14,.35-.01,.04-.02,.08-.04,.11h0s-.02,.06-.04,.1c0,0,0,.01,0,.02,0,0,0,.02-.01,.02-.49,1.27-.89,2.56-.89,2.56l-1.43-3.99-1.32,.17c1.46,.82,1.11,9.7,1.26,10.16s2.66,.98,2.66,.98c-.33-.75,6.52-7.37,6.52-7.37h0Z"/>
  <ellipse class="cls-1" cx="9.9" cy="6.28" rx="1.99" ry="1.81"/>
  <ellipse class="cls-1" cx="12.82" cy="6.92" rx="1.99" ry="1.81"/>
  <path class="cls-1" d="M17.01,7.66c-.04-1-.97-1.77-2.07-1.73s-1.95,.88-1.91,1.88c.02,.43,.2,.82,.49,1.12l.04,.04c.21,.2,.46,.36,.75,.46,.05,0,.09,.02,.14,.04,.21,.06,.43,.08,.65,.07,1.1-.04,1.95-.88,1.91-1.88Z"/>
  <path class="cls-1" d="M18.65,8.79c-.04-1-.97-1.77-2.07-1.73-1.1,.04-1.95,.88-1.91,1.88,.04,.85,.72,1.54,1.6,1.7,.04,0,.08,.01,.12,.02,.11,.01,.23,.02,.35,.01,1.1-.04,1.95-.88,1.91-1.88h0Z"/>
  <path class="cls-1" d="M20.68,10.97c-.04-1-.97-1.77-2.07-1.73-.98,.04-1.76,.7-1.89,1.55,0,.01,0,.02,0,.04,0,.02,0,.04,0,.06,0,.04,.01,.08,0,.11,0,.02,0,.04-.01,.06v.06s0,.01,0,.02c0,0,0,.02,0,.03,.07,.97,.99,1.72,2.07,1.68,1.1-.04,1.95-.88,1.91-1.88Z"/>
  <ellipse class="cls-1" cx="19.45" cy="9.37" rx="1.99" ry="1.81"/>
  <ellipse class="cls-1" cx="19.39" cy="10.62" rx="1.99" ry="1.81"/>
  <ellipse class="cls-1" cx="20.37" cy="9.55" rx="1.99" ry="1.81"/>
  <ellipse class="cls-1" cx="8.79" cy="6.07" rx="1.99" ry="1.81"/>
  <ellipse class="cls-1" cx="10.98" cy="5.18" rx="1.99" ry="1.81"/>
  <ellipse class="cls-1" cx="13.7" cy="4.97" rx="1.99" ry="1.81"/>
  <ellipse class="cls-1" cx="16.17" cy="5.88" rx="1.99" ry="1.81"/>
  <ellipse class="cls-1" cx="20.31" cy="8.27" rx="1.99" ry="1.81"/>
  <ellipse class="cls-1" cx="18.04" cy="6.9" rx="1.99" ry="1.81"/>
  <path class="cls-1" d="M9.46,8.9c.21-.17,.38-.39,.5-.65,.42-.92-.07-1.98-1.09-2.35s-2.18,.07-2.6,.99,.07,1.98,1.09,2.35c.73,.27,1.54,.12,2.09-.33,0,0,0,0,.01-.01h0Z"/>
  <ellipse class="cls-1" cx="10.11" cy="6.81" rx="1.99" ry="1.81"/>
  <ellipse class="cls-1" cx="12.84" cy="6.87" rx="1.99" ry="1.81"/>
  <ellipse class="cls-1" cx="15.04" cy="7.69" rx="1.99" ry="1.81"/>
  <ellipse class="cls-1" cx="16.68" cy="8.82" rx="1.99" ry="1.81"/>
  <ellipse class="cls-1" cx="18.71" cy="11" rx="1.99" ry="1.81"/>
  <ellipse class="cls-1" cx="19.47" cy="9.32" rx="1.99" ry="1.81"/>
  <ellipse class="cls-1" cx="19.41" cy="10.57" rx="1.99" ry="1.81"/>
  <ellipse class="cls-1" cx="20.39" cy="9.51" rx="1.99" ry="1.81"/>
  <ellipse class="cls-1" cx="8.81" cy="6.02" rx="1.99" ry="1.81"/>
  <ellipse class="cls-1" cx="11" cy="5.13" rx="1.99" ry="1.81"/>
  <ellipse class="cls-1" cx="13.72" cy="4.92" rx="1.99" ry="1.81"/>
  <ellipse class="cls-1" cx="16.19" cy="5.83" rx="1.99" ry="1.81"/>
  <ellipse class="cls-1" cx="20.34" cy="8.22" rx="1.99" ry="1.81"/>
  <ellipse class="cls-1" cx="18.06" cy="6.85" rx="1.99" ry="1.81"/>
  <ellipse class="cls-1" cx="8.23" cy="7.04" rx="1.99" ry="1.81"/>
  <path class="cls-1" d="M10.59,5.36c-1.02-.38-2.18,.07-2.6,.99s.07,1.98,1.09,2.35c.38,.14,.77,.17,1.15,.1,.05-.01,.09-.03,.14-.03,.01,0,.02,0,.04,0,.17-.04,.33-.11,.48-.19,.05-.03,.1-.07,.15-.09,.28-.19,.5-.45,.64-.76,.42-.92-.07-1.98-1.09-2.35h0Z"/>
  <ellipse class="cls-1" cx="12.82" cy="6.92" rx="1.99" ry="1.81"/>
  <path class="cls-3" d="M20.13,10.63c-.04-1-.97-1.77-2.07-1.73-1.04,.04-1.86,.79-1.91,1.72,.03,0,.06,0,.09,.01,.09,.01,.19,.02,.28,.06,0,0,.01,0,.02,0,.02-.01,.06-.01,.08,0,0,0,0,0,0,0,0,0,.02,0,.03,0,.04,0,.05,.04,.04,.07,.04,.02,.03,.07,0,.09,.02,.05,.03,.1,.02,.15,0,.04-.02,.08-.04,.11,.04,.02,.03,.06,0,.08h0s0,.11-.05,.09c0,0,0,0,0,0,0,.03-.02,.06-.05,.06,0,.02-.02,.03-.04,.03,0,.02-.03,.04-.05,.04,0,.02-.03,.04-.05,.03-.01,.02-.04,.04-.06,.05,0,0,0,0,0,0,.34,.61,1.05,1.03,1.86,1,1.1-.04,1.95-.88,1.91-1.88h0Z"/>
  <path class="cls-3" d="M17.92,8.66c-.1-.99-1.07-1.72-2.16-1.63-1.1,.09-1.9,.97-1.8,1.96,.01,.12,.04,.23,.07,.34,0,0,.01,0,.02,0,.05,.02,.1,.04,.15,.06,.01,0,.03,.01,.04,.02,.13,0,.25,.08,.37,.11,0,0,0,0,.01,0,.02,0,.03,0,.04,.01,0,0,0,0,.01,0,.03,0,.05,.03,.05,.06,0,.02-.01,.04-.03,.06-.01,.01-.03,.02-.05,.03h0s0,.04-.03,.05c0,0-.01,0-.02,0-.01,.03-.04,.06-.07,.08-.02,.03-.04,.06-.07,.09-.01,.02-.03,.03-.06,.04,.34,.39,.86,.65,1.43,.68h0s.02-.08,.07-.07c.04,.01,.07,.03,.11,.04,.02,0,.05,0,.07,.01,.02,0,.04,0,.06,0,1.09-.09,1.89-.97,1.79-1.96h0Z"/>
  <path class="cls-3" d="M16.43,7.71c-.04-1-.97-1.77-2.07-1.73-1.1,.04-1.95,.88-1.91,1.88,.02,.41,.19,.78,.45,1.07,0-.02,0-.04,.03-.05,0-.02,0-.04,.02-.05,0-.02,0-.04,.03-.05,0-.03,.03-.05,.06-.05,.01,0,.02,0,.04,0,0,0,0,0,0,0,.01-.02,.04-.03,.06-.02,0,0,0,0,0,0,0,0,.01,0,.02,0,.01-.01,.03-.02,.06-.01h0s.03-.01,.05,0c0,0,.01,0,.01,0,0,0,0,0,.01,0,.02,0,.03,.02,.03,.03,.02,0,.04,.02,.03,.05h0s.02,.02,.02,.03c.02,0,.04,.02,.06,.04,.12,.12,.23,.24,.37,.34,.02,.01,.03,.02,.05,.03,0,0,0,0,0,0,.04,.02,.08,.05,.12,.07,0,0,0,0,0,0,.01,0,.02,0,.03,.01,.05,.02,.1,.04,.15,.06,.01,0,.03,.01,.04,.02,.13,0,.25,.08,.37,.11,0,0,0,0,.01,0,.02,0,.03,0,.04,.01,0,0,0,0,.01,0,.03,0,.04,.02,.05,.05,1-.13,1.75-.93,1.71-1.86h0Z"/>
  <path class="cls-2" d="M13.38,8.79h0s.01,.01,.02,.02c.46-.35,.74-.88,.72-1.46-.04-1-.97-1.77-2.07-1.73s-1.95,.88-1.91,1.88c.02,.47,.24,.88,.57,1.19,0,0,.01,0,.02-.01,.13-.08,.25-.19,.4-.24,0-.02,.03-.04,.05-.04,0,0,0,0,0,0,0-.01,.02-.02,.04-.03,0-.02,0-.03,.02-.04,.03-.02,.05-.03,.08-.04,0-.03,.03-.07,.07-.05,.03,.01,.04,.03,.03,.06h0s.03-.01,.05,0c.03,.01,.04,.04,.03,.07,.02,0,.04,.02,.04,.05-.02,.12-.1,.21-.15,.31-.05,.1-.05,.22-.11,.33,0,0-.01,.01-.02,.02,.28,.12,.6,.19,.93,.17,.23,0,.44-.05,.64-.12,0-.03,.01-.06,.05-.06,0-.03,0-.05,.01-.08-.02-.02-.01-.06,.01-.08,0-.02,0-.04,.02-.05,0-.02,0-.04,.03-.05,0-.03,.03-.05,.06-.05,.01,0,.02,0,.04,0,0,0,0,0,0,0,.01-.02,.04-.03,.06-.02,0,0,0,0,0,0,0,0,.01,0,.02,0,.01-.01,.03-.02,.06-.01h0s.03-.01,.05,0c0,0,.01,0,.01,0,0,0,0,0,.01,0,.02,0,.03,.02,.03,.03,.02,0,.04,.02,.03,.05h0Z"/>
  <path class="cls-2" d="M13.56,7.27c-.04-1-.97-1.77-2.07-1.73s-1.95,.88-1.91,1.88c.02,.55,.32,1.03,.77,1.35,0,0,.02,0,.03,0,.05,0,.11-.02,.17-.02,.02,0,.04-.01,.06-.02,.02,0,.03,0,.04,0,.03-.01,.05-.03,.08-.05,.13-.08,.25-.19,.4-.24,0-.02,.03-.04,.05-.04,0,0,0,0,0,0,0-.01,.02-.02,.04-.03,0-.02,0-.03,.02-.04,.03-.02,.05-.03,.08-.04,0-.03,.03-.07,.07-.05,.03,.01,.04,.03,.03,.06h0s.03-.01,.05,0c.03,.01,.04,.04,.03,.07,.02,0,.04,.02,.04,.05-.02,.12-.1,.21-.15,.31-.05,.1-.05,.22-.11,.33,0,0-.01,.02-.02,.02,0,.02-.01,.05-.02,.07,.13,.02,.26,.03,.4,.02,1.1-.04,1.95-.88,1.91-1.88h0Z"/>
  <path class="cls-3" d="M10.88,7.79c-.04-1-.97-1.77-2.07-1.73-1.1,.04-1.95,.88-1.91,1.88,.03,.62,.39,1.15,.93,1.45,.07,0,.15,0,.22,.02,.01-.01,.03-.02,.06-.01,0,0,0,0,.01,0,.03-.01,.07-.02,.11,0,.07,.02,.09,.07,.08,.12,0,0,.01,.02,.02,.03,0,.01,0,.02,.01,.04h0c.2,.05,.41,.07,.62,.07,.22,0,.42-.05,.61-.11,0,0,0,0,0-.01-.05-.14-.11-.27-.13-.42-.01-.02-.03-.05-.04-.07,0,0,0,0,0-.01-.05-.03-.02-.09,.03-.09,0-.03,.03-.05,.07-.04,0,0,.02-.01,.03-.02,0-.02,.04-.04,.07-.03,0,0,.01,0,.02,0,0,0,.02,0,.03,0,.11,0,.23,0,.35,0,0-.02,.04-.04,.07-.03,0,0,.01,0,.02,.01,0,0,0,0,.01,0,.01-.02,.04-.03,.07-.02h0c.06-.03,.14-.05,.2-.06,.05,0,.11-.02,.17-.02,.02,0,.04-.01,.06-.02,.02,0,.03,0,.04,0,.17-.28,.26-.6,.24-.94h0Z"/>
  <path class="cls-1" d="M17.01,7.66c-.04-1-.97-1.77-2.07-1.73s-1.95,.88-1.91,1.88c.02,.43,.2,.82,.49,1.12l.04,.04c.21,.2,.46,.36,.75,.46,.05,0,.09,.02,.14,.04,.21,.06,.43,.08,.65,.07,1.1-.04,1.95-.88,1.91-1.88Z"/>
  <path class="cls-1" d="M18.65,8.79c-.04-1-.97-1.77-2.07-1.73-1.1,.04-1.95,.88-1.91,1.88,.04,.85,.72,1.54,1.6,1.7,.04,0,.08,.01,.12,.02,.11,.01,.23,.02,.35,.01,1.1-.04,1.95-.88,1.91-1.88h0Z"/>
  <path class="cls-1" d="M20.68,10.97c-.04-1-.97-1.77-2.07-1.73-.98,.04-1.76,.7-1.89,1.55,0,.01,0,.02,0,.04,0,.02,0,.04,0,.06,0,.04,.01,.08,0,.11,0,.02,0,.04-.01,.06v.06s0,.01,0,.02c0,0,0,.02,0,.03,.07,.97,.99,1.72,2.07,1.68,1.1-.04,1.95-.88,1.91-1.88Z"/>
  <ellipse class="cls-1" cx="19.45" cy="9.37" rx="1.99" ry="1.81"/>
  <ellipse class="cls-1" cx="19.39" cy="10.62" rx="1.99" ry="1.81"/>
  <ellipse class="cls-1" cx="20.37" cy="9.55" rx="1.99" ry="1.81"/>
  <ellipse class="cls-1" cx="8.79" cy="6.07" rx="1.99" ry="1.81"/>
  <path class="cls-1" d="M11.06,6.98c-1.1,.04-2.03-.73-2.07-1.73s.81-1.84,1.91-1.88c1.1-.04,2.03,.73,2.07,1.73,.04,1-.81,1.84-1.91,1.88Z"/>
  <ellipse class="cls-1" cx="13.7" cy="4.97" rx="1.99" ry="1.81"/>
  <ellipse class="cls-1" cx="16.17" cy="5.88" rx="1.99" ry="1.81"/>
  <ellipse class="cls-1" cx="20.31" cy="8.27" rx="1.99" ry="1.81"/>
  <ellipse class="cls-1" cx="18.04" cy="6.9" rx="1.99" ry="1.81"/>
  <path class="cls-5" d="M8.79,5.52c-1.1,.04-2.03-.73-2.07-1.73-.04-1,.81-1.84,1.91-1.88,1.1-.04,2.03,.73,2.07,1.73,.04,1-.81,1.84-1.91,1.88Z"/>
  <path class="cls-5" d="M8.1,7.48c-1.1,.04-2.03-.73-2.07-1.73s.81-1.84,1.91-1.88c1.1-.04,2.03,.73,2.07,1.73,.04,1-.81,1.84-1.91,1.88Z"/>
  <path class="cls-5" d="M7.88,8.42c-1.1,.04-2.03-.73-2.07-1.73s.81-1.84,1.91-1.88c1.1-.04,2.03,.73,2.07,1.73,.04,1-.81,1.84-1.91,1.88Z"/>
  <path class="cls-5" d="M10.32,7.77c-1.1,.04-2.03-.73-2.07-1.73s.81-1.84,1.91-1.88c1.1-.04,2.03,.73,2.07,1.73,.04,1-.81,1.84-1.91,1.88Z"/>
  <path class="cls-5" d="M10.28,4.74c-1.1,.04-2.03-.73-2.07-1.73-.04-1,.81-1.84,1.91-1.88,1.1-.04,2.03,.73,2.07,1.73,.04,1-.81,1.84-1.91,1.88Z"/>
  <path class="cls-5" d="M13.23,5.21c-1.1,.04-2.03-.73-2.07-1.73-.04-1,.81-1.84,1.91-1.88,1.1-.04,2.03,.73,2.07,1.73,.04,1-.81,1.84-1.91,1.88Z"/>
  <path class="cls-5" d="M11.73,4.66c-1.1,.04-2.03-.73-2.07-1.73-.04-1,.81-1.84,1.91-1.88,1.1-.04,2.03,.73,2.07,1.73,.04,1-.81,1.84-1.91,1.88Z"/>
  <path class="cls-5" d="M14.5,4.14c-1.1,.04-2.03-.73-2.07-1.73-.04-1,.81-1.84,1.91-1.88,1.1-.04,2.03,.73,2.07,1.73,.04,1-.81,1.84-1.91,1.88Z"/>
  <path class="cls-5" d="M15.03,7.51c-1.1,.04-2.03-.73-2.07-1.73s.81-1.84,1.91-1.88c1.1-.04,2.03,.73,2.07,1.73,.04,1-.81,1.84-1.91,1.88Z"/>
  <path class="cls-5" d="M17.73,8.18c-1.1,.04-2.03-.73-2.07-1.73s.81-1.84,1.91-1.88c1.1-.04,2.03,.73,2.07,1.73,.04,1-.81,1.84-1.91,1.88Z"/>
  <path class="cls-5" d="M19.38,9.93c-1.1,.04-2.03-.73-2.07-1.73-.04-1,.81-1.84,1.91-1.88,1.1-.04,2.03,.73,2.07,1.73,.04,1-.81,1.84-1.91,1.88Z"/>
  <path class="cls-5" d="M22.05,10.68c-1.1,.04-2.03-.73-2.07-1.73s.81-1.84,1.91-1.88c1.1-.04,2.03,.73,2.07,1.73,.04,1-.81,1.84-1.91,1.88Z"/>
  <path class="cls-5" d="M20.79,12.08c-1.1,.04-2.03-.73-2.07-1.73-.04-1,.81-1.84,1.91-1.88,1.1-.04,2.03,.73,2.07,1.73,.04,1-.81,1.84-1.91,1.88Z"/>
  <path class="cls-5" d="M18.38,10.4c-1.1,.04-2.03-.73-2.07-1.73-.04-1,.81-1.84,1.91-1.88,1.1-.04,2.03,.73,2.07,1.73,.04,1-.81,1.84-1.91,1.88Z"/>
  <path class="cls-5" d="M16.17,8.66c-1.1,.04-2.03-.73-2.07-1.73s.81-1.84,1.91-1.88c1.1-.04,2.03,.73,2.07,1.73,.04,1-.81,1.84-1.91,1.88Z"/>
  <path class="cls-5" d="M20.36,8.01c-1.1-.01-1.98-.84-1.96-1.83,.02-1,.92-1.79,2.02-1.78,1.1,.02,1.98,.84,1.96,1.83-.02,1-.92,1.79-2.02,1.78Z"/>
  <path class="cls-5" d="M15.87,6.6c-1.1,.04-2.03-.73-2.07-1.73-.04-1,.81-1.84,1.91-1.88,1.1-.04,2.03,.73,2.07,1.73,.04,1-.81,1.84-1.91,1.88Z"/>
  <path class="cls-5" d="M19.44,6.18c-1.1,.04-2.03-.73-2.07-1.73-.04-1,.81-1.84,1.91-1.88,1.1-.04,2.03,.73,2.07,1.73,.04,1-.81,1.84-1.91,1.88Z"/>
  <path class="cls-5" d="M17.25,4.75c-1.1,.04-2.03-.73-2.07-1.73-.04-1,.81-1.84,1.91-1.88,1.1-.04,2.03,.73,2.07,1.73,.04,1-.81,1.84-1.91,1.88Z"/>
  <path class="cls-5" d="M22.09,9.28c-1.1,.04-2.03-.73-2.07-1.73-.04-1,.81-1.84,1.91-1.88,1.1-.04,2.03,.73,2.07,1.73,.04,1-.81,1.84-1.91,1.88Z"/>
  <path class="cls-5" d="M15.35,6c-1.1,.04-2.03-.73-2.07-1.73-.04-1,.81-1.84,1.91-1.88,1.1-.04,2.03,.73,2.07,1.73,.04,1-.81,1.84-1.91,1.88Z"/>
  <path class="cls-5" d="M13.05,7.35c-1.1,.04-2.03-.73-2.07-1.73s.81-1.84,1.91-1.88c1.1-.04,2.03,.73,2.07,1.73,.04,1-.81,1.84-1.91,1.88Z"/>
  <path class="cls-4" d="M23.91,18.15h0s-.01-.1-.02-.14c-.02-.15-.06-.44-.13-1.04h-.14c-.79-2.09-2.97-3.58-5.54-3.58-2.95,0-5.4,1.98-5.8,4.55h-.44c-1.52,0-2.8,1.02-3.02,2.35h-.15c.05,.46,.09,.77,.12,.99,0,.17,.02,.34,.06,.5h0c.28,1.26,1.52,2.22,2.99,2.22h5.76c.07,0,.13,0,.19,0,.09,0,.19,0,.28,0,3.24,0,5.86-2.38,5.86-5.31,0-.18,0-.36-.03-.53h0Z"/>
  <path class="cls-8" d="M18.03,12.43c-2.98-.03-5.45,1.96-5.86,4.55h-.44c-1.68,0-3.05,1.24-3.05,2.77v.53c0,1.52,1.37,2.77,3.05,2.77h5.76c.07,0,.13,0,.19,0,.09,0,.19,0,.28,0,3.31,0,5.98-2.49,5.86-5.52-.12-2.82-2.68-5.07-5.8-5.1h0Z"/>
  <path class="cls-9" d="M18.05,13.2c-2.44,0-4.47,1.64-4.89,3.8-.07,.34-.4,.59-.78,.59h-.48c-1.35,0-2.45,.99-2.45,2.22v.45c0,1.23,1.1,2.22,2.45,2.22h6.15c2.75,0,4.97-2.08,4.97-4.64s-2.23-4.64-4.97-4.64h0Z"/>
  <path class="cls-8" d="M23.28,16.67h0c-.05-.2-.32-.58-.47-.26l-6.56,1.62c-.16,.04-1.39,.33-1.6,.13-.14-.13-.45-.44-.48-.48,0,0-.24-.21-1.21-.93-.17-.12-.41-.1-.54,.05h0c-.13,.15-.1,.37,.06,.49,.59,.44,1.17,.89,1.39,1.08,.04,.04,.08,.08,.11,.13,.59,.84,.85,1.79,.78,2.82-.03,.45-.12,.83-.19,1.07-.05,.17,.04,.35,.22,.42h0c.21,.08,.46-.02,.52-.22,.19-.6,.45-1.86-.05-3.26-.06-.16,.04-.33,.21-.37l7.55-1.87c.2-.05,.32-.24,.27-.43h0Z"/>
  <ellipse class="cls-8" cx="12.12" cy="19.84" rx="1.05" ry=".95"/>
  <polygon class="cls-11" points="5.82 6.77 5.03 2.84 5.81 2.57 6.16 6.56 8.75 1.95 9.58 2.97 6.71 6.71 5.82 6.77"/>
  <polygon class="cls-6" points="5.79 6.18 6.21 .69 6.96 .62 6.23 6.13 7.07 2.2 8.1 2.42 6.61 6.24 10.02 0 10.81 .6 6.96 6.34 10.48 2.78 11.2 3.46 7.4 6.46 6.99 7.1 5.82 6.77 5.79 6.18"/>
  <path class="cls-10" d="M9.18,10.69c-.14,.41-.52,1.31-1.05,2.45-.12,.26-.25,.54-.39,.82-.41,.85-.87,1.79-1.37,2.74-.14,.27-.28,.54-.43,.81-.68,1.27-1.41,2.51-2.11,3.56-.18,.27-.36,.53-.54,.78-.96,1.32-1.83,2.15-2.42,1.99-.97-.27-1-3.21-.7-6.45,.03-.3,.06-.6,.09-.9,.07-.68,.16-1.36,.26-2.03,.04-.3,.09-.6,.13-.89,.2-1.33,.43-2.56,.62-3.48,.07-.33,.14-.63,.2-.87,.07-.27,.12-.48,.17-.63,.64-1.88,2.85-2.94,4.92-2.36,1.46,.41,2.47,1.52,2.72,2.8,.06,.31,.07,.62,.04,.94-.02,.24-.08,.48-.16,.72h0Z"/>
  <path class="cls-7" d="M1.68,17.35c-.04,.12-.13,.21-.24,.26s-.24,.07-.37,.03l-.9-.25c.03-.3,.06-.6,.09-.9l1.09,.31c.26,.07,.4,.32,.32,.55h0Z"/>
  <path class="cls-7" d="M4.05,10.4c-.04,.12-.16,.2-.31,.24s-.35,.04-.55-.02l-1.85-.52c.05-.34,.1-.64,.15-.89l1.99,.56c.4,.11,.66,.39,.58,.63h0Z"/>
  <path class="cls-7" d="M3.83,21.07c-.18,.27-.36,.53-.54,.78l-1.12-.31c-.26-.07-.4-.32-.32-.55,.04-.12,.13-.21,.24-.26,.11-.05,.24-.07,.37-.03l1.37,.38h0Z"/>
  <path class="cls-7" d="M9.34,9.97l-1.65-.46c-.26-.07-.4-.32-.32-.55,.04-.12,.13-.21,.24-.26,.11-.05,.24-.07,.37-.03l1.32,.37c.06,.31,.07,.62,.04,.94Z"/>
  <path class="cls-7" d="M8.13,13.14c-.12,.26-.25,.54-.39,.82l-1.44-.4c-.26-.07-.4-.32-.32-.55,.04-.12,.13-.21,.24-.26,.11-.05,.24-.07,.37-.03l1.54,.43h0Z"/>
  <path class="cls-7" d="M3.46,14.82c-.04,.12-.13,.21-.24,.26-.11,.05-.24,.07-.37,.03l-2.33-.65c.04-.3,.09-.6,.13-.89l2.48,.69c.26,.07,.4,.32,.32,.55h0Z"/>
  <path class="cls-7" d="M6.37,16.7c-.14,.27-.28,.54-.43,.81l-.4-.11c-.26-.07-.4-.32-.32-.55,.04-.12,.13-.21,.24-.26,.11-.05,.24-.07,.37-.03l.54,.15h0Z"/>
  <path class="cls-7" d="M6.74,11.82l-.65-.18c-.26-.07-.4-.32-.32-.55h0c.08-.23,.35-.36,.61-.29l.65,.18c.26,.07,.4,.32,.32,.55h0c-.08,.23-.35,.36-.61,.29Z"/>
</svg>